<?xml version="1.0" encoding="utf-8"?>
<svg xmlns="http://www.w3.org/2000/svg" viewBox="158.2483 59.9021 673.5184 739.5972" width="673.518px" height="739.597px" preserveAspectRatio="none"><g id="object-12"><g id="object-11"><g id="g25" transform="matrix(1, 0, 0, 1, -29.760407, -107.175685)"><path id="path21" style="display:inline;fill:#ebfcff;fill-opacity:1;stroke:none;stroke-width:9.99998;stroke-dasharray:none;stroke-opacity:1" d="m 463.80469,235.12891 c -3.09465,-0.002 -6.51706,0.87739 -8.40821,3.51757 -2.28667,2.99173 -1.88226,7.29778 0.0469,10.36133 3.70462,6.02871 8.57775,11.20266 12.967,16.71946 1.14391,1.39129 2.31302,2.85751 3.31958,4.22572 1.40188,1.91539 2.77105,3.88369 3.77983,6.03724 -0.77979,0.92738 -2.04837,0.6044 -3.08689,0.51527 -3.87629,-0.49332 -7.60644,-1.66166 -11.3345,-2.65645 -5.0072,-1.42668 -10.05124,-2.74142 -15.18382,-3.63634 -13.53397,-2.53377 -27.51032,-3.11975 -41.13102,-0.90448 -3.57467,0.5287 -7.27503,1.0957 -10.45228,2.91936 -3.01872,1.88747 -4.78483,5.85708 -3.5403,9.29973 1.03318,3.07599 3.65998,5.18852 5.98712,7.28688 1.83164,1.58722 3.88646,3.0389 5.29833,5.01783 -0.0592,0.83591 -1.0151,0.74867 -1.60044,1.0044 -3.70441,0.93168 -7.54698,1.07335 -11.29635,1.76648 -16.5861,2.68551 -32.3528,9.27589 -46.63717,18.00956 -15.69992,9.55611 -29.84143,21.45056 -43.10138,34.12348 -15.6639,15.07336 -30.24399,31.30059 -43.26899,48.71422 -18.12875,24.26224 -33.23207,50.92497 -43.48224,79.47095 -3.45402,9.56917 -6.50642,19.30157 -8.7409,29.232 -0.60123,2.92736 -1.15141,5.97675 -0.61276,8.95433 0.70129,3.33117 3.63287,6.16751 7.09592,6.35386 2.94989,0.20297 5.54087,-1.44991 8.11235,-2.64126 3.74192,-1.8147 7.37041,-4.02296 11.43784,-5.03364 0.49038,-0.007 1.27172,-0.13189 1.5238,0.39328 0.0541,1.54104 -0.61732,2.99523 -1.0039,4.46289 -1.42153,4.34029 -3.12826,8.40017 -4.80063,12.6547 -6.58885,16.78571 -12.15099,34.01756 -15.74616,51.70557 -1.69325,8.26238 -3.1681,16.58892 -3.91779,24.9953 -0.83214,10.61921 -0.83566,21.28546 -0.60538,31.92883 0.18546,7.05868 0.63873,14.13889 2.05578,21.07005 1.33961,6.82708 3.11533,13.58135 5.49732,20.12104 1.07434,2.75086 2.24188,5.56385 4.21217,7.80576 2.177,2.36378 5.73931,3.61818 8.83203,2.43164 3.04256,-1.06301 5.00077,-3.7921 6.764,-6.32934 0.89586,-1.13895 1.94165,-2.46984 3.47624,-2.65699 1.77039,2.35643 2.81203,5.16489 3.94173,7.86562 2.65478,6.70651 5.11036,13.50236 8.24942,20.00488 8.78331,18.83602 20.76433,36.09701 34.80665,51.38654 15.20556,16.66393 32.6781,31.31175 52.00069,42.98072 9.56636,5.61147 19.64691,10.35386 30.07626,14.12634 3.26301,1.12453 6.65896,2.1496 10.14204,2.10074 3.14724,-0.14826 6.07399,-2.15985 7.38241,-5.02017 1.58698,-3.16827 1.38887,-6.87129 2.74805,-10.10988 0.14504,-0.74668 0.91148,-0.25977 1.35454,-0.10409 5.159,2.43087 9.71286,5.92568 14.63202,8.78088 20.10215,12.04029 42.40753,20.17889 65.30284,24.98573 8.61261,1.7843 17.32293,3.16558 26.09599,3.83852 9.62381,0.58881 19.27412,0.28842 28.90271,-0.0106 6.99084,-0.2395 13.97521,-0.82561 20.87246,-2.01469 19.62695,-3.14219 39.1192,-8.02075 57.24541,-16.31381 10.42116,-4.72512 20.34526,-10.47038 29.96905,-16.64142 2.17556,-1.28685 4.34715,-2.77062 6.83632,-3.33384 1.29802,0.68517 1.66599,2.26136 1.522,3.61961 -0.22276,2.72683 -0.83589,5.3613 -0.99661,8.1011 0.1464,2.72901 2.96857,4.78266 5.61172,4.34388 4.1751,0.006 8.45518,0.15735 12.47179,-1.18211 7.69564,-2.1078 14.89711,-5.64111 21.9827,-9.24321 25.81126,-13.46756 48.50779,-32.50978 67.33841,-54.63533 12.77027,-15.01713 23.48227,-31.8163 31.36816,-49.89571 2.60461,-5.84402 4.81171,-11.8521 7.22136,-17.77619 0.78731,-1.81282 1.57176,-3.80398 2.90152,-5.34309 0.86898,-0.89701 2.27365,-0.3091 2.88431,0.59098 2.25395,2.49911 3.76453,5.7187 6.62026,7.63324 3.08092,2.00952 7.55973,1.55148 10.05285,-1.20147 2.53864,-2.58322 3.54267,-6.17355 4.71985,-9.49695 2.5361,-7.84829 4.36183,-15.91411 5.81552,-24.02779 0.97687,-5.6318 1.40708,-11.34409 1.45293,-17.05704 0.22455,-10.07015 0.18305,-20.167 -0.71482,-30.20531 -1.13543,-11.13272 -3.0468,-22.18436 -5.59826,-33.07816 -3.74076,-15.80739 -9.04868,-31.19739 -15.02465,-46.2874 -1.73045,-4.54828 -3.69591,-9.05502 -4.68747,-13.83899 -0.0755,-0.66175 -0.22516,-1.41623 0.14827,-2.01615 2.37369,-0.45136 4.61749,0.79737 6.69504,1.77092 4.0287,2.00352 7.87328,4.57924 12.31401,5.58629 3.88474,0.69374 8.24406,-1.62444 9.38705,-5.49647 1.15435,-3.34904 0.15565,-6.89296 -0.4631,-10.24084 -1.95653,-9.20216 -4.91833,-18.15084 -7.9312,-27.04988 -3.83142,-11.04511 -8.51706,-21.7798 -13.81199,-32.19809 -11.09846,-22.10098 -24.43091,-43.07936 -39.70177,-62.53171 -6.22972,-7.9327 -12.98242,-15.44045 -20.02361,-22.65871 -10.31227,-10.69963 -20.94735,-21.12049 -32.39369,-30.61326 -17.12973,-14.2866 -35.4378,-27.13466 -54.47673,-38.74238 -12.91125,-7.80212 -26.20053,-15.03173 -40.04139,-21.05293 -8.38337,-3.64876 -17.04977,-6.66027 -25.93571,-8.82819 -5.32016,-1.3261 -10.68433,-2.58243 -16.14465,-3.15796 -2.70422,-0.28415 -5.64519,0.28135 -7.64608,2.2386 -2.10766,2.00909 -2.80676,5.22124 -1.93943,7.97291 0.76746,3.35431 1.73428,6.69322 2.5781,10.00756 -0.34498,0.42957 -0.70164,1.13344 -1.27226,1.18093 -3.07235,-1.41023 -5.69309,-3.60494 -8.38137,-5.61861 -5.02624,-3.96152 -10.02215,-7.96906 -15.30148,-11.59363 -13.32808,-9.29464 -27.73146,-17.20873 -43.14424,-22.45721 -9.7989,-3.3072 -20.09113,-5.43448 -30.46901,-5.28296 z m 125.97265,155.09375 c 4.00308,0.006 7.9045,0.18439 11.86906,0.55073 2.86082,0.26635 5.73918,0.63001 8.65243,1.10161 3.94917,0.63944 8.06277,1.51099 11.91874,2.52928 21.52531,5.6289 41.41894,16.95559 57.71944,32.0407 7.6885,7.0375 14.19522,15.26689 20.01372,23.88719 8.35896,12.73683 14.41817,26.90892 18.4145,41.58971 3.09391,11.41039 4.99928,23.31136 5.73231,35.17503 0.5045,7.97823 0.48536,16.03959 -0.006,24.01637 -0.27016,4.24334 -0.66419,8.3972 -1.19336,12.63281 -3.84362,30.15081 -14.58782,59.75302 -32.13659,84.73617 -3.62913,5.20285 -7.671,10.16632 -11.93702,14.78161 -8.78308,9.47213 -18.41015,18.16584 -28.71816,25.95062 -7.3501,5.55751 -15.19873,10.44302 -23.37815,14.68199 -18.13112,9.37629 -37.84553,15.84253 -57.8646,19.99201 -10.99082,2.27018 -22.18637,3.85188 -33.32486,4.78339 -4.17535,0.35246 -8.29595,0.42642 -12.5188,0.50783 -9.05064,0.16746 -18.10947,0.26734 -27.15698,-0.0742 -4.76945,-0.2887 -9.62125,-0.78714 -14.43647,-1.21875 -12.37622,-1.17294 -24.69472,-3.22427 -36.72948,-6.20203 -10.73573,-2.65337 -21.44556,-6.13191 -31.75983,-10.39758 -2.4023,-1.00472 -4.94996,-2.11362 -7.37695,-3.23047 -18.20385,-8.40557 -35.43293,-19.58221 -49.87002,-33.65111 -8.56379,-8.34129 -16.37232,-17.34933 -23.25907,-27.11672 -3.16257,-4.42554 -5.85407,-9.1598 -8.38064,-13.97018 -4.0621,-7.67076 -7.79964,-15.52309 -11.02383,-23.58386 -2.53352,-6.64139 -4.45737,-13.49665 -6.29216,-20.35803 -1.12708,-4.27073 -2.15226,-8.64091 -3.11569,-13.00369 -0.21563,-1.05825 -0.4778,-2.36649 -0.67734,-3.52974 -0.72999,-4.07949 -1.23339,-8.38486 -1.54273,-12.54552 -0.89348,-11.60726 -1.09066,-23.26618 -0.67251,-34.89935 0.22233,-5.94296 0.64337,-12.06256 1.7157,-17.98585 3.26807,-17.79897 8.62074,-35.32482 17.6068,-51.09699 4.80419,-8.52316 10.46889,-16.59821 17.25267,-23.66888 5.01623,-5.36743 10.23433,-10.56393 15.81685,-15.3436 1.19714,-1.00345 2.48116,-2.02488 3.64164,-2.89757 5.5563,-4.17103 11.60386,-7.73194 17.7833,-10.80156 5.18916,-2.58884 10.61557,-4.80074 16.03851,-6.69579 3.72376,-1.29298 7.68227,-2.49925 11.57672,-3.48221 2.66522,-0.69238 5.45185,-1.30458 8.04802,-1.64515 8.32578,-1.08378 16.74671,-1.16985 25.12917,-0.96639 1.97083,0.0569 4.13999,0.18372 6.18556,0.30341 5.63274,0.40329 11.29199,0.90893 16.79794,2.2159 6.37559,1.66926 12.54431,3.77116 18.8129,5.79951 7.3642,2.4245 14.7057,4.91742 22.05516,7.38626 7.65625,-0.17447 15.31253,-0.34786 22.96875,-0.52344 11.89074,-4.0084 23.69288,-8.33289 35.79064,-11.69841 10.37863,-2.70687 21.10922,-4.02461 31.83045,-4.07502 z"/><path id="path29" style="display:inline;fill:#9bddeb;fill-opacity:1;stroke:none;stroke-width:9.99998;stroke-dasharray:none;stroke-opacity:1" d="m 587.83789,400.31836 c -11.44087,0.27996 -22.84595,2.28413 -33.65137,6.07161 -10.37471,3.45106 -20.62479,7.26472 -30.94238,10.87761 -1.64308,0.17128 -3.32633,0.03 -4.98515,0.0788 -7.13125,0.007 -14.2625,0.0139 -21.39376,0.0208 -14.97205,-5.00609 -29.84276,-10.33898 -45.02148,-14.69727 -3.05226,-0.86954 -6.21021,-1.26528 -9.37472,-1.39979 -8.56183,-0.50793 -17.14831,-0.4479 -25.71837,-0.21612 -4.42213,0.1832 -8.77433,1.09745 -13.0155,2.32485 -14.13435,3.85955 -27.69456,10.08997 -39.46265,18.86209 -5.82871,4.4223 -11.09708,9.53061 -16.20781,14.75141 -5.16517,5.37925 -10.16285,10.9752 -14.25067,17.23355 -9.23678,14.07345 -15.88529,29.82171 -19.72899,46.2036 -1.91799,8.12098 -3.03045,16.42548 -3.32463,24.76449 -0.33911,10.77631 -0.39021,21.58322 0.47135,32.33719 1.36998,14.82562 4.99013,29.37984 9.93816,43.3985 4.40557,12.29572 9.85755,24.2803 17.02418,35.22794 11.53076,17.73936 26.59618,33.0749 43.65942,45.53182 14.0973,10.25396 29.72207,18.43342 46.2634,23.96028 14.6698,5.00107 29.80603,8.60407 45.1135,10.99946 7.68668,1.19924 15.43844,2.02092 23.21934,2.21508 10.0587,0.34296 20.12844,0.29793 30.19002,0.10407 6.79516,-0.14138 13.57932,-0.66853 20.31388,-1.58189 16.9246,-2.17876 33.6877,-5.86596 49.82618,-11.4403 18.89384,-6.62922 36.56918,-16.58971 52.30257,-28.94657 12.43671,-9.83259 23.71499,-21.21405 32.97902,-34.10128 5.44709,-7.55569 10.06874,-15.68595 13.94558,-24.15098 7.44375,-16.08016 12.52373,-33.21203 15.5489,-50.65672 0.88941,-5.10855 1.41257,-10.27341 1.61985,-15.45363 0.45221,-9.64581 0.51636,-19.31613 0.0815,-28.96346 -0.22274,-5.00219 -0.82493,-9.98184 -1.77715,-14.89646 -2.86386,-15.64234 -8.11754,-30.88313 -15.8982,-44.77036 -3.59709,-6.53942 -7.71064,-12.81438 -12.57548,-18.48605 -6.05464,-7.18946 -12.77757,-13.81626 -20.00251,-19.82563 -6.3368,-5.19017 -13.42541,-9.38905 -20.73528,-13.04842 -16.07519,-7.96305 -33.95324,-12.42797 -51.92336,-12.35585 -0.83585,-0.006 -1.67164,0.0198 -2.50743,0.0276 z"/><path id="path26" style="display:inline;fill:#9bddeb;fill-opacity:1;stroke:none;stroke-width:20;stroke-dasharray:none;stroke-opacity:1" d="m 262.66016,193.49609 c -3.3075,0.21601 -5.94463,2.49943 -8.19495,4.72185 -21.08843,20.04643 -36.18503,46.5203 -41.86369,75.11582 -2.4976,12.56789 -3.00289,25.53335 -1.39373,38.24913 1.6409,13.85476 5.67096,27.43399 12.00395,39.8721 4.57436,9.12838 10.28957,17.62047 16.23637,25.89996 3.21008,4.55871 6.41939,9.11797 9.63001,13.6763 6.5896,-8.3086 13.17164,-16.63344 20.26745,-24.52047 6.68137,-7.56899 13.37277,-15.14663 20.54736,-22.25503 3.70355,-3.33624 7.69479,-6.63203 11.40997,-10.03591 4.69558,-4.18559 9.36862,-8.39375 14.05062,-12.59484 -7.20679,-8.04386 -14.975,-15.59699 -21.67928,-24.08226 -3.68742,-4.71277 -7.00471,-9.71116 -9.9594,-14.91383 -0.43496,-0.81109 -1.03398,-1.8528 -1.50897,-2.76538 -2.41072,-4.53232 -4.52156,-9.22231 -6.34259,-14.02173 -0.30241,-0.83447 -0.71471,-1.92564 -1.03852,-2.86908 -1.95141,-5.60855 -3.52729,-11.27184 -4.68218,-17.1485 -0.63332,-3.34855 -0.80243,-6.77302 -1.01758,-10.13477 -0.0276,-0.72068 -0.0736,-1.83121 -0.0949,-2.60618 -0.23568,-7.92451 -0.10333,-15.88912 0.71086,-23.73625 0.20417,-2.50325 0.88758,-4.93523 1.22385,-7.41548 0.29513,-4.03824 -2.90403,-8.10254 -7.0117,-8.41396 -0.4297,-0.0375 -0.86256,-0.0354 -1.29296,-0.0215 z"/><path id="path27" style="display:inline;fill:#9bddeb;fill-opacity:1;stroke:none;stroke-width:14.1421;stroke-dasharray:none;stroke-opacity:1" d="m 760.07617,193.86914 c -3.00333,-0.11807 -5.66273,2.34919 -6.16015,5.24219 -0.38045,1.81577 0.42029,3.56926 0.62653,5.35408 0.92599,5.22542 1.45317,10.57163 1.70409,15.78098 0.33379,7.04129 0.24948,14.23788 -0.565,21.29658 -0.0991,0.73009 -0.22136,1.76786 -0.35684,2.61309 -1.04523,7.19521 -3.10637,14.21459 -5.86687,20.93311 -2.77525,6.83797 -6.00652,13.49856 -9.72034,19.87646 -4.36686,7.33365 -9.75759,14.01207 -15.68067,20.14199 -4.92773,5.17102 -9.95386,10.24723 -14.90653,15.39433 4.85849,4.0552 9.75166,8.07266 14.44141,12.32422 1.57501,1.43631 3.2593,3.03351 4.84668,4.56451 8.69574,8.32306 17.06876,17.08718 25.04394,26.03901 4.0567,4.55122 7.91697,9.27053 11.7434,14.01511 1.78149,2.10444 3.66128,4.29173 6.1827,5.51659 2.77258,1.25217 6.34909,0.61709 8.31325,-1.77473 2.20442,-2.32041 3.89725,-5.05633 5.73397,-7.66225 4.45068,-6.61021 8.71736,-13.35552 12.56525,-20.3361 9.30943,-17.49481 13.96846,-37.34513 14.02126,-57.13089 0.0126,-13.6725 -2.15047,-27.38555 -6.70775,-40.28934 -3.40142,-9.23248 -7.91917,-18.01225 -12.84231,-26.51613 -4.19831,-7.10811 -9.07902,-13.79905 -14.46834,-20.04895 -3.86036,-4.54116 -7.83217,-9.02926 -12.35197,-12.92956 -1.5967,-1.2861 -3.47624,-2.4273 -5.59571,-2.4043 z"/></g><g transform="matrix(0.1, 0, 0, -0.1, -29.760407, 916.824368)" fill="#08414d" stroke="none" id="g6"><path d="m 2677,8554 c -90,-32 -253,-175 -385,-337 -168,-205 -286,-461 -327,-707 -23,-135 -16,-401 14,-531 53,-231 147,-422 324,-658 l 55,-73 -29,-43 c -292,-433 -511,-1046 -433,-1211 22,-46 87,-100 130,-108 40,-8 41,-14 14,-92 -34,-96 -78,-279 -106,-434 -35,-197 -45,-530 -20,-698 39,-266 119,-443 223,-493 31,-15 58,-20 102,-18 l 61,2 55,-107 c 109,-211 215,-365 358,-521 206,-226 431,-397 697,-531 166,-83 276,-117 387,-118 88,-1 93,0 139,33 l 48,34 106,-53 c 190,-95 413,-163 670,-207 133,-22 520,-25 655,-5 265,40 513,112 713,208 l 115,54 31,-23 c 99,-75 269,-56 513,58 441,206 888,651 1095,1093 l 39,82 h 65 c 35,0 79,6 97,14 83,34 157,158 201,334 41,167 49,256 43,492 -8,280 -42,496 -117,735 -47,151 -47,141 -8,154 61,21 107,61 134,118 24,49 26,61 21,131 -19,254 -206,710 -430,1045 l -58,88 48,53 c 152,166 296,452 349,691 21,100 29,333 15,436 -46,322 -202,639 -434,885 -83,89 -193,176 -266,214 -59,30 -147,38 -188,16 -81,-41 -91,-105 -44,-264 43,-145 55,-236 48,-370 -9,-184 -65,-345 -177,-507 -52,-74 -203,-235 -222,-235 -5,0 -61,39 -124,86 -329,247 -758,461 -1039,518 -175,36 -256,29 -304,-25 -14,-16 -29,-29 -34,-29 -5,0 -55,29 -110,64 -139,87 -224,128 -361,175 -151,52 -245,71 -354,71 -97,0 -152,-14 -214,-55 -69,-46 -97,-145 -64,-226 7,-19 12,-38 10,-44 -3,-6 -59,-9 -151,-7 -370,8 -563,-85 -540,-260 6,-44 7,-43 -107,-93 -80,-35 -258,-132 -328,-179 l -28,-18 -81,78 c -147,143 -243,295 -295,470 -21,72 -27,116 -31,230 -6,159 2,224 47,370 45,145 37,199 -33,243 -41,25 -121,27 -180,5 z m -33,-325 c -34,-130 -37,-355 -8,-487 36,-162 128,-370 216,-487 29,-38 88,-106 131,-149 42,-44 76,-80 75,-81 -25,-13 -216,-186 -283,-256 -84,-87 -217,-242 -259,-300 l -17,-24 -29,35 c -97,115 -206,309 -248,440 -71,220 -69,494 5,720 63,192 176,378 329,539 53,55 97,101 99,101 1,0 -4,-23 -11,-51 z m 5120,-144 c 327,-404 393,-880 185,-1322 -38,-79 -132,-227 -184,-288 l -26,-30 -27,35 c -141,181 -309,360 -472,502 l -64,57 85,88 c 109,112 169,194 229,313 98,196 134,338 133,530 -1,111 -17,235 -39,295 -11,30 98,-78 180,-180 z M 4865,7785 c 198,-57 408,-172 585,-321 56,-47 117,-90 136,-95 43,-13 86,9 104,51 11,26 10,39 -8,93 -11,34 -18,64 -16,66 12,12 177,-22 286,-59 284,-95 703,-345 1038,-619 131,-107 347,-317 450,-436 299,-347 548,-790 655,-1165 39,-137 49,-196 35,-205 -6,-3 -36,10 -68,29 -32,20 -73,41 -92,46 -100,29 -155,-47 -112,-155 11,-28 40,-99 64,-160 178,-440 235,-941 147,-1288 -23,-91 -57,-187 -67,-187 -4,0 -19,20 -34,45 -42,69 -103,84 -156,40 -23,-19 -39,-50 -63,-123 -17,-53 -56,-146 -86,-207 -155,-311 -390,-581 -699,-802 -169,-121 -404,-233 -489,-233 -26,0 -27,2 -21,36 10,53 -9,99 -49,118 -46,22 -70,15 -178,-57 -274,-181 -590,-283 -979,-318 -420,-37 -919,88 -1251,314 -79,54 -106,67 -137,67 -49,0 -76,-31 -85,-100 -4,-28 -11,-53 -16,-56 -17,-10 -151,36 -254,88 -312,156 -619,432 -823,738 -78,118 -163,289 -202,406 -36,108 -70,154 -115,154 -40,0 -79,-25 -100,-64 -11,-20 -23,-36 -27,-36 -30,0 -82,159 -103,316 -49,375 26,816 214,1256 57,134 53,184 -17,209 -39,13 -84,0 -165,-48 -32,-19 -61,-32 -65,-29 -9,10 14,115 55,246 137,447 427,904 828,1305 351,352 675,540 973,565 90,7 125,28 135,78 8,42 -7,65 -72,112 -76,55 -70,62 65,80 167,22 352,3 527,-54 103,-34 156,-34 191,0 48,48 33,92 -72,212 -92,105 -122,146 -122,167 0,16 7,17 83,12 45,-3 123,-18 172,-32 z" id="path1"/><path d="m 4090,6395 c -277,-53 -514,-173 -702,-357 -245,-239 -389,-537 -444,-918 -23,-160 -15,-479 16,-635 102,-522 334,-901 732,-1198 344,-255 806,-398 1348,-414 511,-15 997,100 1365,322 180,109 376,280 503,439 357,447 497,1103 356,1668 -112,448 -383,786 -786,978 -185,88 -372,130 -578,130 -196,0 -328,-28 -600,-126 -96,-35 -114,-38 -205,-38 -87,0 -111,4 -190,33 -161,58 -259,89 -335,106 -106,23 -382,29 -480,10 z m 436,-225 c 45,-10 142,-41 215,-69 193,-71 249,-84 359,-84 108,0 174,15 323,74 227,91 406,121 593,100 502,-57 902,-419 1034,-936 114,-447 21,-990 -235,-1380 -196,-296 -525,-544 -884,-664 -572,-191 -1278,-161 -1805,78 -328,149 -632,436 -787,743 -78,155 -145,361 -175,543 -24,141 -24,436 0,570 52,288 165,515 354,708 181,184 375,288 622,333 97,17 279,10 386,-16 z" id="path2"/><path d="m 4110,5348 c -61,-31 -98,-87 -111,-168 -12,-77 -3,-230 18,-280 62,-152 257,-155 336,-6 19,36 21,57 22,176 0,124 -2,139 -25,184 -52,103 -149,141 -240,94 z" id="path3" style="display:inline"/><path d="m 5970,5348 c -61,-31 -98,-87 -111,-168 -14,-85 -4,-230 19,-284 66,-147 261,-147 333,0 17,37 23,70 27,149 7,169 -27,263 -112,305 -55,26 -101,25 -156,-2 z" id="path4" style="display:inline"/></g><path style="fill: rgb(8, 65, 77); stroke-width: 1; transform-box: fill-box; transform-origin: 50% 50%;" d="M 440.734 423.227 C 444.971 419.812 463.445 422.116 479.266 432.686 C 495.086 443.256 509.959 459.53 517.232 475.529 C 524.507 491.528 528.663 509.809 528.918 528.655 C 529.173 547.501 525.527 566.912 517.196 585.173 C 513.312 593.685 508.56 602.072 502.991 609.638 C 497.421 617.203 492.742 623.093 485.59 628.312 C 478.438 633.531 468.592 638.722 461.129 640.942 C 453.666 643.161 446.882 643.262 442.44 640.008 C 436.158 635.403 432.511 621.291 430.382 601.756 C 428.254 582.221 427.643 557.267 427.429 530.978 C 427.215 504.689 427.827 479.839 430.062 460.199 C 432.297 440.557 434.45 428.684 440.734 423.227 Z" id="object-0" transform="matrix(0, 1.000011, -0.999989, 0, -0.000035, -0.000041)"/><path style="stroke-width: 1.231; fill: rgb(238, 251, 254); transform-box: fill-box; transform-origin: 50% 50%;" d="M 452.845 450.014 C 455.735 447.438 468.305 449.175 479.075 457.147 C 489.845 465.117 499.965 477.389 504.915 489.453 C 509.865 501.518 512.695 515.302 512.875 529.513 C 513.045 543.724 510.565 558.362 504.895 572.132 C 502.245 578.55 499.015 584.876 495.225 590.58 C 491.435 596.285 488.245 600.727 483.375 604.662 C 478.515 608.597 471.805 612.512 466.735 614.186 C 461.655 615.859 457.035 615.936 454.005 613.481 C 449.735 610.009 447.255 599.368 445.805 584.638 C 444.355 569.906 443.935 551.089 443.795 531.265 C 443.645 511.443 444.065 492.704 445.585 477.893 C 447.105 463.081 448.575 454.128 452.845 450.014 Z" id="object-1" transform="matrix(0, 1.000011, -0.999989, 0, 0.000042, 0.000008)"/><path style="fill: none; stroke: rgb(0, 0, 0); stroke-width: 3px;" d="M 396.229 519.064 C 419.967 537.978 533.453 537.756 559.692 519.064" id="object-2"/><path style="stroke: rgb(0, 0, 0); fill: none; stroke-width: 3px;" d="M 397.542 519.635 C 395.857 517.949 396.464 518.025 394.859 518.025" id="object-3"/><path style="fill: rgb(216, 216, 216); stroke: rgb(0, 0, 0); stroke-width: 3px;" d="M 558.538 519.635 C 560.976 518.415 559.075 519.471 559.075 517.488" id="object-4"/><line style="fill: rgb(216, 216, 216); stroke: rgb(0, 0, 0); stroke-width: 1;" x1="416.518" y1="500.923" x2="416.518" y2="547.622" id="object-5"/><line style="fill: rgb(216, 216, 216); stroke: rgb(0, 0, 0);" x1="542.818" y1="500.923" x2="543.879" y2="545.499" id="object-6"/><line style="fill: rgb(216, 216, 216); stroke: rgb(0, 0, 0);" x1="441.991" y1="498.8" x2="440.929" y2="560.358" id="object-7"/><line style="fill: rgb(216, 216, 216); stroke: rgb(0, 0, 0); stroke-width: 1;" x1="517.346" y1="497.739" x2="517.346" y2="559.297" id="object-8"/><line style="fill: rgb(216, 216, 216); stroke: rgb(0, 0, 0); stroke-width: 1;" x1="492.935" y1="497.739" x2="492.935" y2="565.665" id="object-9"/><line style="fill: rgb(216, 216, 216); stroke: rgb(0, 0, 0);" x1="466.401" y1="497.739" x2="465.34" y2="565.665" id="object-10"/><g id="group-1" style="" transform="matrix(3.252891, 0, 0, 3.620653, -3968.941036, -465.623061)"><g id="group-2" transform="matrix(1, 0, 0, 1, 1578.580956, 229.601352)"><g id="group-3" transform="matrix(1.6137864,0,0,1.6137864,-49.98658,130.05022)"><path id="path-1" d="M -35.92 -61.752 L -35.926 -61.759 C -36.119 -62.053 -36.353 -62.335 -36.634 -62.596 C -36.915 -62.862 -37.241 -63.106 -37.619 -63.33 C -37.831 -63.444 -38.048 -63.537 -38.263 -63.616 C -38.477 -63.695 -38.692 -63.757 -38.909 -63.804 C -39.339 -63.897 -39.771 -63.926 -40.204 -63.9 C -40.636 -63.873 -41.065 -63.792 -41.494 -63.662 C -41.921 -63.535 -42.348 -63.36 -42.77 -63.143 C -43.191 -62.927 -43.609 -62.671 -44.012 -62.379 C -44.419 -62.091 -44.813 -61.766 -45.195 -61.419 C -45.576 -61.071 -45.943 -60.698 -46.295 -60.311 C -46.645 -59.923 -46.98 -59.519 -47.289 -59.106 C -47.678 -58.565 -48.043 -58.03 -48.385 -57.503 C -48.728 -56.975 -49.05 -56.451 -49.359 -55.934 C -49.975 -54.897 -50.541 -53.884 -51.109 -52.89 C -51.674 -51.896 -52.245 -50.918 -52.875 -49.961 C -53.191 -49.483 -53.523 -49.01 -53.874 -48.54 C -54.228 -48.072 -54.602 -47.607 -55.006 -47.144 C -55.431 -46.661 -55.903 -46.207 -56.402 -45.77 C -56.903 -45.334 -57.427 -44.916 -57.949 -44.51 C -58.47 -44.104 -58.99 -43.706 -59.478 -43.311 C -59.972 -42.917 -60.435 -42.522 -60.844 -42.119 C -60.845 -42.118 -60.848 -42.117 -60.847 -42.116 C -61.289 -41.691 -61.718 -41.252 -62.139 -40.804 C -62.557 -40.353 -62.964 -39.888 -63.359 -39.416 C -63.751 -38.945 -64.135 -38.464 -64.499 -37.974 C -64.864 -37.487 -65.214 -36.991 -65.549 -36.489 C -65.882 -35.992 -66.201 -35.486 -66.5 -34.981 C -66.802 -34.475 -67.084 -33.968 -67.347 -33.462 C -67.609 -32.955 -67.853 -32.451 -68.077 -31.949 C -68.299 -31.448 -68.502 -30.949 -68.681 -30.457 C -68.852 -29.988 -69.003 -29.529 -69.133 -29.076 C -69.262 -28.622 -69.37 -28.179 -69.457 -27.744 C -69.541 -27.309 -69.607 -26.885 -69.648 -26.473 C -69.689 -26.062 -69.705 -25.663 -69.699 -25.278 C -69.691 -24.892 -69.661 -24.523 -69.603 -24.169 C -69.548 -23.815 -69.471 -23.476 -69.364 -23.157 C -69.254 -22.838 -69.122 -22.538 -68.961 -22.258 C -68.803 -21.98 -68.613 -21.723 -68.398 -21.484 C -68.302 -21.782 -68.17 -22.07 -67.992 -22.348 C -67.816 -22.623 -67.602 -22.885 -67.347 -23.13 C -67.091 -23.374 -66.797 -23.601 -66.465 -23.805 C -66.134 -24.009 -65.762 -24.19 -65.354 -24.341 C -65.551 -24.551 -65.719 -24.764 -65.862 -24.979 C -66.005 -25.195 -66.121 -25.412 -66.216 -25.634 C -66.307 -25.854 -66.375 -26.075 -66.422 -26.295 C -66.468 -26.517 -66.491 -26.738 -66.495 -26.96 C -66.498 -27.18 -66.481 -27.401 -66.444 -27.621 C -66.411 -27.835 -66.356 -28.05 -66.288 -28.263 C -66.147 -28.687 -65.939 -29.094 -65.684 -29.479 C -65.436 -29.851 -65.143 -30.2 -64.819 -30.519 C -64.495 -30.84 -64.141 -31.133 -63.77 -31.385 C -63.396 -31.638 -63.007 -31.854 -62.614 -32.025 C -62.219 -32.194 -61.819 -32.319 -61.432 -32.391 C -61.688 -32.628 -61.905 -32.892 -62.07 -33.179 C -62.238 -33.47 -62.351 -33.783 -62.409 -34.124 C -62.464 -34.462 -62.461 -34.83 -62.389 -35.225 C -62.32 -35.617 -62.183 -36.039 -61.977 -36.486 C -61.768 -36.934 -61.487 -37.411 -61.128 -37.915 C -61.126 -37.918 -61.124 -37.921 -61.122 -37.925 C -60.874 -38.237 -60.606 -38.526 -60.319 -38.79 C -60.035 -39.055 -59.731 -39.296 -59.416 -39.511 C -59.098 -39.724 -58.766 -39.917 -58.423 -40.083 C -58.081 -40.251 -57.726 -40.396 -57.363 -40.515 C -56.998 -40.636 -56.626 -40.737 -56.249 -40.811 C -55.872 -40.884 -55.486 -40.938 -55.099 -40.97 C -54.711 -41.001 -54.317 -41.008 -53.925 -40.996 C -53.535 -40.981 -53.141 -40.948 -52.75 -40.89 C -52.747 -40.889 -52.746 -40.89 -52.746 -40.889 C -51.497 -40.678 -49.779 -40.381 -48.093 -40.146 C -47.249 -40.03 -46.415 -39.93 -45.651 -39.867 C -44.889 -39.803 -44.195 -39.775 -43.641 -39.804 C -43.632 -39.807 -43.624 -39.807 -43.616 -39.807 C -43.608 -39.809 -43.601 -39.807 -43.593 -39.808 C -43.586 -39.81 -43.579 -39.803 -43.569 -39.802 C -43.564 -39.802 -43.556 -39.8 -43.55 -39.797 C -43.544 -39.796 -43.535 -39.796 -43.527 -39.794 C -43.524 -39.789 -43.516 -39.787 -43.509 -39.781 C -43.505 -39.779 -43.496 -39.773 -43.491 -39.772 C -43.487 -39.767 -43.48 -39.76 -43.472 -39.757 C -43.468 -39.754 -43.462 -39.745 -43.459 -39.741 C -43.455 -39.737 -43.446 -39.73 -43.444 -39.724 C -43.44 -39.722 -43.436 -39.713 -43.434 -39.708 L -43.432 -39.707 L -43.434 -39.706 C -43.431 -39.702 -43.426 -39.692 -43.423 -39.685 C -43.421 -39.681 -43.418 -39.673 -43.414 -39.666 C -43.414 -39.66 -43.409 -39.651 -43.407 -39.645 C -43.408 -39.639 -43.409 -39.632 -43.408 -39.625 C -43.407 -39.621 -43.409 -39.61 -43.408 -39.604 C -43.409 -39.599 -43.413 -39.593 -43.412 -39.585 C -43.414 -39.579 -43.418 -39.573 -43.419 -39.564 C -43.42 -39.559 -43.422 -39.551 -43.426 -39.543 C -43.432 -39.538 -43.432 -39.53 -43.437 -39.526 C -43.441 -39.517 -43.443 -39.509 -43.448 -39.506 C -43.457 -39.5 -43.46 -39.494 -43.462 -39.488 C -43.468 -39.484 -43.474 -39.479 -43.478 -39.473 C -43.483 -39.468 -43.494 -39.461 -43.498 -39.458 C -43.504 -39.453 -43.513 -39.446 -43.518 -39.443 C -43.524 -39.438 -43.534 -39.434 -43.541 -39.431 C -43.547 -39.425 -43.556 -39.42 -43.561 -39.417 C -43.566 -39.415 -43.577 -39.412 -43.584 -39.407 C -43.59 -39.406 -43.601 -39.399 -43.609 -39.398 C -43.615 -39.395 -43.621 -39.394 -43.633 -39.39 C -43.641 -39.389 -43.647 -39.386 -43.655 -39.389 C -43.659 -39.388 -43.668 -39.387 -43.677 -39.388 C -44.272 -39.357 -44.988 -39.383 -45.772 -39.445 C -46.553 -39.51 -47.397 -39.612 -48.244 -39.728 C -49.94 -39.963 -51.65 -40.269 -52.897 -40.482 L -52.891 -40.48 C -53.265 -40.531 -53.64 -40.563 -54.01 -40.577 C -54.383 -40.591 -54.753 -40.584 -55.119 -40.556 C -55.484 -40.528 -55.845 -40.482 -56.201 -40.411 C -56.557 -40.342 -56.906 -40.249 -57.247 -40.137 C -57.589 -40.024 -57.918 -39.89 -58.238 -39.732 C -58.561 -39.578 -58.868 -39.396 -59.166 -39.196 C -59.461 -38.995 -59.745 -38.77 -60.012 -38.523 C -60.278 -38.277 -60.53 -38.007 -60.764 -37.711 C -61.107 -37.227 -61.374 -36.777 -61.57 -36.361 C -61.764 -35.942 -61.89 -35.561 -61.953 -35.204 C -62.016 -34.849 -62.019 -34.522 -61.969 -34.22 C -61.918 -33.917 -61.815 -33.641 -61.668 -33.386 C -61.522 -33.131 -61.322 -32.894 -61.086 -32.678 C -60.85 -32.46 -60.573 -32.261 -60.261 -32.077 C -59.953 -31.895 -59.609 -31.731 -59.234 -31.581 C -58.864 -31.43 -58.466 -31.294 -58.045 -31.173 C -57.209 -30.93 -56.297 -30.739 -55.37 -30.585 C -54.441 -30.432 -53.501 -30.315 -52.607 -30.216 C -51.712 -30.117 -50.868 -30.037 -50.129 -29.959 C -49.39 -29.877 -48.753 -29.797 -48.279 -29.695 C -48.271 -29.697 -48.263 -29.691 -48.257 -29.689 C -48.251 -29.685 -48.242 -29.687 -48.236 -29.684 C -48.232 -29.681 -48.223 -29.676 -48.218 -29.673 C -48.211 -29.67 -48.205 -29.666 -48.198 -29.663 C -48.193 -29.66 -48.185 -29.655 -48.181 -29.65 C -48.175 -29.645 -48.169 -29.636 -48.166 -29.632 C -48.163 -29.629 -48.157 -29.623 -48.152 -29.617 C -48.148 -29.613 -48.142 -29.603 -48.141 -29.6 C -48.139 -29.594 -48.133 -29.585 -48.133 -29.58 C -48.132 -29.576 -48.124 -29.565 -48.122 -29.56 C -48.12 -29.556 -48.119 -29.549 -48.117 -29.539 C -48.116 -29.534 -48.116 -29.528 -48.114 -29.52 C -48.114 -29.516 -48.113 -29.506 -48.113 -29.5 C -48.113 -29.495 -48.113 -29.488 -48.116 -29.479 C -48.116 -29.472 -48.12 -29.464 -48.118 -29.459 C -48.123 -29.45 -48.123 -29.445 -48.128 -29.438 C -48.13 -29.43 -48.133 -29.424 -48.134 -29.416 C -48.139 -29.411 -48.141 -29.4 -48.148 -29.396 C -48.152 -29.392 -48.158 -29.385 -48.163 -29.379 C -48.166 -29.374 -48.171 -29.368 -48.174 -29.362 C -48.181 -29.357 -48.187 -29.352 -48.193 -29.347 C -48.197 -29.343 -48.204 -29.338 -48.211 -29.331 C -48.218 -29.326 -48.222 -29.325 -48.231 -29.32 C -48.239 -29.315 -48.247 -29.31 -48.254 -29.307 C -48.26 -29.303 -48.266 -29.301 -48.274 -29.298 C -48.281 -29.297 -48.286 -29.294 -48.295 -29.287 C -48.303 -29.285 -48.311 -29.282 -48.317 -29.282 C -48.326 -29.28 -48.33 -29.275 -48.342 -29.278 C -48.35 -29.276 -48.357 -29.275 -48.365 -29.275 C -48.373 -29.274 -48.382 -29.277 -48.388 -29.277 C -48.397 -29.277 -48.402 -29.279 -48.41 -29.28 C -48.413 -29.283 -48.425 -29.284 -48.431 -29.287 C -48.869 -29.381 -49.491 -29.46 -50.226 -29.541 C -50.961 -29.62 -51.812 -29.701 -52.71 -29.801 C -53.609 -29.899 -54.56 -30.017 -55.499 -30.171 C -56.438 -30.327 -57.369 -30.521 -58.23 -30.77 C -58.766 -30.928 -59.278 -31.107 -59.745 -31.313 C -60.214 -31.517 -60.644 -31.753 -61.012 -32.022 C -61.372 -31.993 -61.755 -31.903 -62.148 -31.757 C -62.539 -31.611 -62.937 -31.414 -63.32 -31.172 C -63.702 -30.93 -64.074 -30.644 -64.411 -30.327 C -64.747 -30.008 -65.051 -29.656 -65.301 -29.28 C -65.427 -29.09 -65.543 -28.894 -65.643 -28.692 C -65.741 -28.492 -65.825 -28.29 -65.892 -28.081 C -65.957 -27.874 -66.004 -27.663 -66.033 -27.45 C -66.06 -27.237 -66.069 -27.022 -66.051 -26.806 C -66.038 -26.591 -66 -26.374 -65.936 -26.156 C -65.873 -25.94 -65.784 -25.725 -65.668 -25.509 C -65.554 -25.293 -65.408 -25.08 -65.234 -24.868 C -65.058 -24.654 -64.857 -24.447 -64.622 -24.241 C -64.621 -24.241 -64.621 -24.241 -64.619 -24.24 C -64.376 -24.045 -64.103 -23.868 -63.812 -23.707 C -63.523 -23.545 -63.213 -23.398 -62.894 -23.266 C -62.254 -22.996 -61.57 -22.774 -60.906 -22.565 C -60.055 -22.346 -59.128 -22.152 -58.166 -21.994 C -57.205 -21.835 -56.215 -21.71 -55.237 -21.622 C -54.261 -21.533 -53.299 -21.482 -52.4 -21.471 C -51.503 -21.459 -50.667 -21.485 -49.941 -21.558 C -49.934 -21.562 -49.925 -21.561 -49.919 -21.562 C -49.912 -21.564 -49.903 -21.561 -49.896 -21.561 C -49.889 -21.558 -49.882 -21.557 -49.873 -21.556 C -49.867 -21.557 -49.856 -21.553 -49.85 -21.551 C -49.844 -21.551 -49.836 -21.548 -49.83 -21.545 C -49.822 -21.543 -49.817 -21.54 -49.81 -21.537 C -49.802 -21.535 -49.799 -21.533 -49.791 -21.527 C -49.785 -21.524 -49.776 -21.516 -49.773 -21.512 C -49.767 -21.51 -49.761 -21.503 -49.756 -21.497 C -49.749 -21.495 -49.743 -21.486 -49.74 -21.481 C -49.736 -21.478 -49.732 -21.469 -49.729 -21.465 C -49.725 -21.46 -49.718 -21.45 -49.716 -21.446 C -49.715 -21.44 -49.712 -21.432 -49.709 -21.427 C -49.709 -21.423 -49.705 -21.412 -49.704 -21.407 C -49.704 -21.4 -49.701 -21.395 -49.7 -21.384 C -49.699 -21.378 -49.699 -21.371 -49.699 -21.365 C -49.699 -21.357 -49.699 -21.349 -49.699 -21.342 C -49.701 -21.34 -49.704 -21.33 -49.706 -21.323 C -49.708 -21.319 -49.709 -21.308 -49.709 -21.3 C -49.713 -21.297 -49.714 -21.29 -49.715 -21.282 C -49.719 -21.275 -49.724 -21.267 -49.728 -21.26 C -49.732 -21.256 -49.736 -21.252 -49.74 -21.243 C -49.747 -21.239 -49.751 -21.233 -49.754 -21.225 C -49.759 -21.218 -49.764 -21.213 -49.77 -21.21 C -49.776 -21.204 -49.782 -21.199 -49.788 -21.194 C -49.794 -21.187 -49.8 -21.184 -49.808 -21.181 C -49.815 -21.177 -49.82 -21.173 -49.828 -21.168 C -49.835 -21.165 -49.843 -21.161 -49.849 -21.157 C -49.857 -21.155 -49.863 -21.152 -49.87 -21.149 C -49.877 -21.146 -49.884 -21.142 -49.892 -21.141 C -49.9 -21.14 -49.906 -21.138 -49.917 -21.139 C -49.921 -21.138 -49.924 -21.136 -49.93 -21.138 C -50.682 -21.062 -51.54 -21.034 -52.454 -21.042 C -53.368 -21.055 -54.341 -21.107 -55.33 -21.196 C -56.317 -21.285 -57.321 -21.413 -58.293 -21.574 C -59.264 -21.734 -60.206 -21.93 -61.073 -22.154 C -61.075 -22.154 -61.079 -22.156 -61.081 -22.159 C -61.751 -22.369 -62.455 -22.594 -63.119 -22.873 C -63.45 -23.012 -63.774 -23.166 -64.083 -23.336 C -64.388 -23.507 -64.682 -23.696 -64.947 -23.911 C -64.948 -23.913 -64.948 -23.913 -64.951 -23.915 C -64.982 -23.941 -65.008 -23.967 -65.039 -23.995 C -65.447 -23.855 -65.82 -23.687 -66.145 -23.497 C -66.472 -23.308 -66.756 -23.093 -67.001 -22.865 C -67.244 -22.635 -67.446 -22.389 -67.608 -22.126 C -67.771 -21.867 -67.893 -21.597 -67.974 -21.316 C -68.005 -21.218 -68.027 -21.114 -68.044 -21.015 C -68.047 -21.009 -68.048 -21.004 -68.048 -20.997 C -68.051 -20.991 -68.052 -20.984 -68.051 -20.976 C -68.052 -20.973 -68.055 -20.972 -68.055 -20.969 L -68.055 -20.968 C -68.1 -20.707 -68.109 -20.442 -68.088 -20.178 C -68.067 -19.912 -68.01 -19.643 -67.92 -19.374 C -67.829 -19.11 -67.705 -18.847 -67.546 -18.589 C -67.383 -18.332 -67.189 -18.08 -66.96 -17.84 C -66.684 -17.55 -66.399 -17.283 -66.108 -17.031 C -65.814 -16.783 -65.511 -16.551 -65.198 -16.338 C -64.887 -16.124 -64.567 -15.927 -64.237 -15.745 C -63.904 -15.564 -63.568 -15.4 -63.221 -15.248 C -62.528 -14.949 -61.8 -14.702 -61.041 -14.502 C -60.282 -14.3 -59.493 -14.148 -58.675 -14.025 C -58.669 -14.026 -58.661 -14.024 -58.652 -14.018 C -58.645 -14.019 -58.637 -14.017 -58.631 -14.015 C -58.624 -14.014 -58.619 -14.012 -58.609 -14.01 C -58.605 -14.008 -58.596 -14.003 -58.591 -14 C -58.586 -13.996 -58.581 -13.991 -58.573 -13.989 C -58.568 -13.987 -58.561 -13.98 -58.556 -13.974 C -58.55 -13.973 -58.543 -13.963 -58.54 -13.96 C -58.535 -13.957 -58.529 -13.946 -58.526 -13.942 C -58.524 -13.938 -58.517 -13.932 -58.514 -13.926 C -58.511 -13.92 -58.507 -13.911 -58.505 -13.906 C -58.504 -13.9 -58.497 -13.892 -58.496 -13.888 C -58.494 -13.883 -58.493 -13.872 -58.493 -13.865 C -58.492 -13.861 -58.49 -13.852 -58.49 -13.846 C -58.49 -13.84 -58.489 -13.829 -58.489 -13.826 C -58.489 -13.818 -58.493 -13.813 -58.493 -13.805 C -58.494 -13.799 -58.497 -13.792 -58.498 -13.783 C -58.5 -13.78 -58.5 -13.773 -58.504 -13.764 C -58.508 -13.76 -58.51 -13.751 -58.514 -13.747 C -58.516 -13.741 -58.521 -13.73 -58.526 -13.727 C -58.531 -13.724 -58.535 -13.718 -58.54 -13.712 C -58.546 -13.706 -58.549 -13.699 -58.552 -13.691 C -58.56 -13.687 -58.562 -13.683 -58.57 -13.676 C -58.576 -13.672 -58.582 -13.668 -58.588 -13.664 C -58.595 -13.659 -58.6 -13.654 -58.608 -13.651 C -58.616 -13.646 -58.621 -13.644 -58.629 -13.637 C -58.635 -13.634 -58.644 -13.633 -58.651 -13.63 C -58.659 -13.627 -58.664 -13.623 -58.671 -13.623 C -58.68 -13.62 -58.687 -13.617 -58.694 -13.616 C -58.704 -13.611 -58.709 -13.609 -58.718 -13.614 C -58.728 -13.61 -58.735 -13.609 -58.742 -13.611 C -58.75 -13.611 -58.757 -13.612 -58.765 -13.611 C -58.773 -13.613 -58.78 -13.613 -58.787 -13.616 C -58.79 -13.615 -58.793 -13.614 -58.795 -13.616 C -59.629 -13.74 -60.437 -13.899 -61.216 -14.105 C -61.992 -14.314 -62.743 -14.564 -63.459 -14.876 C -63.815 -15.032 -64.168 -15.203 -64.508 -15.39 C -64.85 -15.576 -65.18 -15.782 -65.502 -16.002 C -65.825 -16.222 -66.139 -16.461 -66.444 -16.72 C -66.745 -16.979 -67.039 -17.257 -67.322 -17.554 C -67.424 -17.658 -67.517 -17.766 -67.606 -17.876 C -68.027 -17.475 -68.367 -17.082 -68.636 -16.697 C -68.904 -16.316 -69.104 -15.94 -69.232 -15.574 C -69.364 -15.207 -69.428 -14.848 -69.435 -14.496 C -69.44 -14.15 -69.386 -13.81 -69.281 -13.478 C -69.173 -13.134 -69.008 -12.8 -68.789 -12.476 C -68.571 -12.153 -68.302 -11.841 -67.988 -11.543 C -67.672 -11.244 -67.312 -10.959 -66.912 -10.69 C -66.512 -10.419 -66.075 -10.165 -65.601 -9.929 C -65.131 -9.694 -64.626 -9.474 -64.095 -9.276 C -63.568 -9.079 -63.011 -8.902 -62.439 -8.743 C -61.865 -8.588 -61.272 -8.453 -60.669 -8.34 C -60.065 -8.227 -59.449 -8.14 -58.829 -8.076 C -58.209 -8.011 -57.583 -7.975 -56.961 -7.96 C -56.339 -7.949 -55.717 -7.963 -55.105 -8.004 C -54.496 -8.046 -53.892 -8.115 -53.309 -8.216 C -52.721 -8.316 -52.153 -8.448 -51.604 -8.607 L -51.603 -8.61 C -51.298 -8.703 -50.987 -8.827 -50.679 -8.97 C -50.367 -9.114 -50.059 -9.279 -49.76 -9.46 C -49.462 -9.645 -49.168 -9.843 -48.892 -10.057 C -48.615 -10.27 -48.355 -10.498 -48.116 -10.733 C -47.876 -10.971 -47.658 -11.215 -47.469 -11.466 C -47.28 -11.713 -47.117 -11.967 -46.988 -12.222 C -46.861 -12.478 -46.766 -12.729 -46.709 -12.98 C -46.652 -13.231 -46.633 -13.475 -46.658 -13.715 C -46.658 -13.719 -46.66 -13.728 -46.66 -13.732 C -46.658 -13.741 -46.66 -13.749 -46.657 -13.757 C -46.657 -13.762 -46.653 -13.768 -46.655 -13.775 C -46.651 -13.779 -46.649 -13.789 -46.647 -13.797 C -46.646 -13.803 -46.644 -13.81 -46.642 -13.816 C -46.636 -13.821 -46.636 -13.83 -46.63 -13.836 C -46.626 -13.842 -46.623 -13.851 -46.618 -13.857 C -46.614 -13.861 -46.609 -13.866 -46.605 -13.872 C -46.599 -13.876 -46.592 -13.884 -46.586 -13.889 C -46.581 -13.893 -46.577 -13.897 -46.57 -13.903 C -46.563 -13.909 -46.557 -13.913 -46.55 -13.916 C -46.544 -13.92 -46.536 -13.923 -46.53 -13.928 C -46.525 -13.933 -46.519 -13.935 -46.509 -13.938 C -46.504 -13.939 -46.5 -13.942 -46.495 -13.945 C -46.223 -14.044 -45.951 -14.155 -45.68 -14.281 C -45.413 -14.405 -45.15 -14.544 -44.889 -14.704 C -44.629 -14.862 -44.377 -15.042 -44.131 -15.243 C -43.887 -15.443 -43.648 -15.667 -43.423 -15.915 C -43.196 -16.165 -42.98 -16.44 -42.777 -16.749 C -42.576 -17.057 -42.384 -17.396 -42.212 -17.767 C -42.04 -18.143 -41.884 -18.55 -41.747 -18.996 C -41.611 -19.445 -41.492 -19.931 -41.4 -20.459 C -41.4 -20.465 -41.397 -20.47 -41.395 -20.479 C -41.393 -20.484 -41.392 -20.492 -41.391 -20.499 C -41.382 -20.506 -41.383 -20.513 -41.379 -20.518 C -41.374 -20.524 -41.373 -20.536 -41.366 -20.538 C -41.361 -20.543 -41.358 -20.548 -41.352 -20.555 C -41.346 -20.56 -41.34 -20.564 -41.337 -20.57 C -41.331 -20.574 -41.326 -20.579 -41.322 -20.584 C -41.315 -20.59 -41.308 -20.593 -41.3 -20.598 C -41.295 -20.603 -41.287 -20.608 -41.278 -20.612 C -41.275 -20.615 -41.268 -20.621 -41.258 -20.627 C -41.253 -20.628 -41.244 -20.631 -41.234 -20.636 C -41.228 -20.638 -41.221 -20.641 -41.213 -20.641 C -41.207 -20.643 -41.201 -20.645 -41.191 -20.647 C -41.009 -20.686 -40.822 -20.747 -40.633 -20.825 C -40.445 -20.902 -40.256 -20.999 -40.07 -21.112 C -39.697 -21.341 -39.329 -21.634 -38.982 -21.973 C -38.639 -22.312 -38.312 -22.702 -38.029 -23.116 C -37.742 -23.531 -37.499 -23.971 -37.308 -24.423 C -37.117 -24.875 -36.979 -25.335 -36.908 -25.781 C -36.874 -26.004 -36.857 -26.224 -36.856 -26.437 C -36.857 -26.651 -36.873 -26.86 -36.912 -27.061 C -36.947 -27.261 -37.008 -27.453 -37.084 -27.635 C -37.159 -27.82 -37.262 -27.989 -37.383 -28.151 C -37.506 -28.308 -37.649 -28.46 -37.819 -28.594 C -37.988 -28.73 -38.182 -28.85 -38.407 -28.96 C -38.412 -28.961 -38.418 -28.966 -38.424 -28.969 C -38.431 -28.973 -38.435 -28.974 -38.445 -28.977 C -38.45 -28.983 -38.455 -28.991 -38.458 -28.994 C -38.463 -28.997 -38.467 -29.005 -38.474 -29.011 C -38.477 -29.015 -38.482 -29.023 -38.486 -29.029 C -38.487 -29.032 -38.494 -29.041 -38.495 -29.045 C -38.547 -29.159 -38.413 -29.271 -38.171 -29.39 C -38.096 -29.428 -37.995 -29.479 -37.894 -29.535 C -37.697 -29.642 -37.502 -29.756 -37.395 -29.818 L -37.393 -29.818 C -37.102 -29.979 -36.808 -30.194 -36.52 -30.442 C -36.234 -30.695 -35.958 -30.98 -35.707 -31.272 C -35.459 -31.567 -35.234 -31.871 -35.053 -32.159 C -34.872 -32.45 -34.734 -32.721 -34.655 -32.957 C -34.531 -33.329 -34.45 -33.591 -34.406 -33.879 C -34.363 -34.167 -34.351 -34.48 -34.367 -34.961 C -34.372 -35.24 -34.41 -35.512 -34.469 -35.777 C -34.53 -36.042 -34.613 -36.301 -34.719 -36.551 C -34.826 -36.804 -34.953 -37.048 -35.103 -37.285 C -35.252 -37.523 -35.419 -37.754 -35.604 -37.979 C -35.974 -38.428 -36.414 -38.851 -36.902 -39.247 C -37.389 -39.645 -37.925 -40.016 -38.49 -40.36 C -39.055 -40.706 -39.648 -41.025 -40.25 -41.32 C -40.844 -41.614 -41.449 -41.884 -42.04 -42.128 C -43.218 -42.619 -44.335 -43.012 -45.223 -43.316 C -45.227 -43.319 -45.238 -43.321 -45.245 -43.326 C -45.252 -43.329 -45.256 -43.332 -45.264 -43.334 C -45.27 -43.338 -45.273 -43.347 -45.283 -43.347 C -45.289 -43.35 -45.293 -43.356 -45.299 -43.358 C -45.307 -43.362 -45.31 -43.372 -45.315 -43.377 C -45.317 -43.38 -45.324 -43.388 -45.33 -43.393 C -45.331 -43.396 -45.336 -43.406 -45.34 -43.411 C -45.343 -43.417 -45.344 -43.424 -45.347 -43.43 C -45.348 -43.433 -45.356 -43.443 -45.357 -43.448 C -45.358 -43.454 -45.364 -43.464 -45.364 -43.47 C -45.363 -43.475 -45.364 -43.487 -45.364 -43.491 C -45.363 -43.496 -45.364 -43.504 -45.363 -43.511 C -45.364 -43.517 -45.359 -43.523 -45.361 -43.531 C -45.36 -43.537 -45.357 -43.543 -45.351 -43.55 C -45.351 -43.556 -45.348 -43.567 -45.344 -43.574 C -45.341 -43.58 -45.341 -43.589 -45.335 -43.593 C -45.332 -43.599 -45.33 -43.606 -45.322 -43.609 C -45.317 -43.615 -45.313 -43.621 -45.31 -43.63 C -45.302 -43.633 -45.297 -43.638 -45.29 -43.646 C -45.287 -43.649 -45.281 -43.653 -45.276 -43.658 C -44.501 -44.316 -43.734 -44.999 -42.988 -45.703 C -42.245 -46.408 -41.522 -47.132 -40.84 -47.872 C -40.157 -48.613 -39.513 -49.375 -38.924 -50.146 C -38.335 -50.92 -37.799 -51.705 -37.337 -52.503 L -37.334 -52.505 C -37.082 -52.949 -36.837 -53.415 -36.603 -53.893 C -36.371 -54.374 -36.153 -54.868 -35.962 -55.368 C -35.771 -55.867 -35.606 -56.37 -35.477 -56.872 C -35.348 -57.374 -35.255 -57.875 -35.214 -58.364 C -35.187 -58.67 -35.178 -58.972 -35.189 -59.267 C -35.2 -59.564 -35.232 -59.852 -35.289 -60.133 C -35.345 -60.416 -35.424 -60.693 -35.529 -60.958 C -35.635 -61.224 -35.766 -61.481 -35.925 -61.727 L -35.92 -61.752 Z" style="opacity: 1; fill-opacity: 1; stroke-linecap: round; stroke-linejoin: round; stroke-miterlimit: 4; stroke-dasharray: none; stroke-opacity: 1; paint-order: stroke; stroke: rgb(28, 64, 76); stroke-width: 3.42576px; fill: rgb(155, 221, 235); transform-origin: -50.35px -34.008px;"/></g></g></g><line style="fill: rgb(216, 216, 216); stroke: rgb(0, 0, 0);" x1="827.1" y1="489.531" x2="825.316" y2="501.127"/><path style="fill: rgb(216, 216, 216); stroke: rgb(28, 64, 76);" d="M 687.567 796.443 C 693.231 796.443 692.138 799.043 697.914 799.043"/><path style="fill: none; stroke: rgb(37, 63, 75);" d="M 829.846 626.684 C 829.846 630.397 829.846 634.11 829.846 637.824 C 829.846 638.345 829.586 642.416 831.084 640.918 C 832.906 639.096 828.094 634.367 831.084 632.872 C 832.06 632.384 831.703 635.923 831.703 636.586"/><path style="stroke: rgb(28, 64, 76); fill: none;" d="M 701.738 799.169 C 706.155 799.169 707.872 800.462 710.402 797.931 C 710.555 797.778 713.541 797.356 712.259 796.074 C 711.539 795.354 706.106 799.169 704.833 799.169"/></g><ellipse style="stroke: rgb(3, 0, 0);" cx="388.504" cy="411.168" rx="3.052" ry="21.122"/><ellipse style="fill: rgb(255, 3, 3); stroke: rgb(255, 0, 0);" cx="388.689" cy="411.066" rx="0.894" ry="4.286"/><ellipse style="stroke: rgb(3, 0, 0);" cx="575.03" cy="411.168" rx="3.052" ry="21.122"/><ellipse style="fill: rgb(255, 3, 3); stroke: rgb(255, 0, 0); stroke-width: 1;" cx="574.966" cy="410.435" rx="0.894" ry="4.286"/></g></svg>