<?xml version="1.0" encoding="utf-8"?>
<svg xmlns="http://www.w3.org/2000/svg" viewBox="151.3947 -77.7333 647.9138 690.4615" width="647.914px" height="690.462px" preserveAspectRatio="none"><g id="object-0" transform="matrix(1, 0, 0, 1, 0, -5.684341886080802e-14)"><path id="path21" style="display: inline; fill: rgb(235, 252, 255); fill-opacity: 1; stroke: none; stroke-width: 10; stroke-dasharray: none; stroke-opacity: 1;" d="M 427.191 -9.682 C 424.096 -9.684 420.674 -8.805 418.783 -6.164 C 416.496 -3.173 416.9 1.133 418.83 4.197 C 422.534 10.226 427.407 15.399 431.797 20.916 C 432.94 22.308 434.11 23.774 435.116 25.142 C 436.518 27.057 437.887 29.026 438.896 31.179 C 438.116 32.107 436.848 31.784 435.809 31.695 C 431.933 31.201 428.203 30.033 424.475 29.038 C 419.467 27.611 414.423 26.297 409.291 25.402 C 395.757 22.868 381.78 22.282 368.16 24.497 C 364.585 25.026 360.885 25.593 357.707 27.417 C 354.689 29.304 352.923 33.274 354.167 36.716 C 355.2 39.792 357.827 41.905 360.154 44.003 C 361.986 45.59 364.041 47.042 365.453 49.021 C 365.393 49.857 364.437 49.77 363.852 50.025 C 360.148 50.957 356.305 51.099 352.556 51.792 C 335.97 54.477 320.203 61.068 305.919 69.801 C 290.219 79.358 276.077 91.252 262.817 103.925 C 247.153 118.998 232.573 135.226 219.548 152.639 C 201.419 176.901 186.316 203.564 176.066 232.11 C 172.612 241.679 169.56 251.412 167.325 261.342 C 166.724 264.27 166.174 267.319 166.712 270.296 C 167.414 273.628 170.345 276.464 173.808 276.65 C 176.758 276.853 179.349 275.2 181.921 274.009 C 185.663 272.194 189.291 269.986 193.358 268.975 C 193.849 268.968 194.63 268.844 194.882 269.369 C 194.936 270.91 194.265 272.364 193.878 273.832 C 192.457 278.172 190.75 282.232 189.078 286.486 C 182.489 303.272 176.927 320.504 173.332 338.192 C 171.638 346.454 170.163 354.781 169.414 363.187 C 168.582 373.806 168.578 384.473 168.808 395.116 C 168.994 402.175 169.447 409.255 170.864 416.186 C 172.204 423.013 173.979 429.767 176.361 436.307 C 177.436 439.058 178.603 441.871 180.574 444.113 C 182.751 446.477 186.313 447.731 189.406 446.544 C 192.448 445.481 194.406 442.752 196.17 440.215 C 197.066 439.076 198.111 437.745 199.646 437.558 C 201.416 439.915 202.458 442.723 203.588 445.424 C 206.242 452.13 208.698 458.926 211.837 465.429 C 220.62 484.265 232.601 501.526 246.644 516.815 C 261.849 533.479 279.322 548.127 298.644 559.796 C 308.211 565.407 318.291 570.15 328.721 573.922 C 331.984 575.047 335.38 576.072 338.863 576.023 C 342.01 575.875 344.937 573.863 346.245 571.003 C 347.832 567.835 347.634 564.132 348.993 560.893 C 349.138 560.146 349.905 560.633 350.348 560.789 C 355.507 563.22 360.061 566.715 364.98 569.57 C 385.082 581.61 407.387 589.749 430.283 594.555 C 438.895 596.34 447.605 597.721 456.379 598.394 C 466.002 598.983 475.653 598.682 485.281 598.383 C 492.272 598.144 499.256 597.558 506.154 596.369 C 525.781 593.227 545.273 588.348 563.399 580.055 C 573.82 575.33 583.744 569.585 593.368 563.413 C 595.544 562.127 597.715 560.643 600.205 560.08 C 601.503 560.765 601.87 562.341 601.727 563.699 C 601.504 566.426 600.891 569.061 600.73 571.8 C 600.876 574.529 603.698 576.583 606.342 576.144 C 610.517 576.15 614.797 576.302 618.813 574.962 C 626.509 572.854 633.711 569.321 640.796 565.719 C 666.607 552.251 689.304 533.209 708.135 511.084 C 720.905 496.066 731.617 479.267 739.503 461.188 C 742.107 455.344 744.314 449.336 746.724 443.412 C 747.511 441.599 748.296 439.608 749.626 438.069 C 750.495 437.172 751.899 437.759 752.51 438.66 C 754.764 441.159 756.274 444.378 759.13 446.293 C 762.211 448.302 766.69 447.844 769.183 445.091 C 771.722 442.508 772.726 438.918 773.903 435.594 C 776.439 427.746 778.265 419.68 779.718 411.567 C 780.695 405.935 781.125 400.223 781.171 394.51 C 781.396 384.439 781.354 374.343 780.456 364.304 C 779.321 353.172 777.41 342.12 774.858 331.226 C 771.117 315.419 765.81 300.029 759.834 284.939 C 758.103 280.39 756.138 275.884 755.146 271.1 C 755.071 270.438 754.921 269.683 755.294 269.084 C 757.668 268.632 759.912 269.881 761.989 270.854 C 766.018 272.858 769.863 275.434 774.303 276.441 C 778.188 277.134 782.547 274.816 783.69 270.944 C 784.845 267.595 783.846 264.051 783.227 260.703 C 781.271 251.501 778.309 242.553 775.296 233.654 C 771.465 222.608 766.779 211.874 761.484 201.455 C 750.386 179.354 737.053 158.376 721.782 138.924 C 715.553 130.991 708.8 123.483 701.759 116.265 C 691.447 105.565 680.811 95.145 669.365 85.652 C 652.235 71.365 633.927 58.517 614.888 46.909 C 601.977 39.107 588.688 31.878 574.847 25.856 C 566.464 22.208 557.797 19.196 548.911 17.028 C 543.591 15.702 538.227 14.446 532.767 13.87 C 530.062 13.586 527.121 14.152 525.121 16.109 C 523.013 18.118 522.314 21.33 523.181 24.082 C 523.949 27.436 524.915 30.775 525.759 34.089 C 525.414 34.519 525.058 35.223 524.487 35.27 C 521.415 33.86 518.794 31.665 516.106 29.652 C 511.079 25.69 506.083 21.683 500.804 18.058 C 487.476 8.763 473.073 0.849 457.66 -4.399 C 447.861 -7.706 437.569 -9.834 427.191 -9.682 L 427.191 -9.682 Z M 553.163 145.412 C 557.167 145.418 561.068 145.596 565.033 145.962 C 567.893 146.229 570.772 146.592 573.685 147.064 C 577.634 147.703 581.748 148.575 585.604 149.593 C 607.129 155.222 627.023 166.549 643.323 181.634 C 651.012 188.672 657.518 196.901 663.337 205.521 C 671.696 218.258 677.755 232.43 681.751 247.111 C 684.845 258.521 686.751 270.422 687.484 282.286 C 687.988 290.264 687.969 298.326 687.478 306.302 C 687.208 310.546 686.813 314.7 686.284 318.935 C 682.441 349.086 671.696 378.688 654.148 403.671 C 650.519 408.874 646.477 413.838 642.211 418.453 C 633.428 427.925 623.801 436.619 613.493 444.404 C 606.142 449.961 598.294 454.847 590.114 459.086 C 571.983 468.462 552.269 474.928 532.25 479.078 C 521.259 481.348 510.063 482.929 498.925 483.861 C 494.75 484.213 490.629 484.287 486.406 484.369 C 477.355 484.536 468.297 484.636 459.249 484.295 C 454.48 484.006 449.628 483.507 444.813 483.076 C 432.436 481.903 420.118 479.852 408.083 476.874 C 397.347 474.22 386.638 470.742 376.323 466.476 C 373.921 465.471 371.373 464.363 368.946 463.246 C 350.743 454.84 333.513 443.663 319.076 429.595 C 310.513 421.253 302.704 412.245 295.817 402.478 C 292.655 398.052 289.963 393.318 287.437 388.508 C 283.375 380.837 279.637 372.985 276.413 364.924 C 273.879 358.282 271.955 351.427 270.121 344.566 C 268.994 340.295 267.968 335.925 267.005 331.562 C 266.789 330.504 266.527 329.196 266.328 328.032 C 265.598 323.953 265.094 319.648 264.785 315.487 C 263.891 303.88 263.694 292.221 264.112 280.588 C 264.335 274.645 264.756 268.525 265.828 262.602 C 269.096 244.803 274.449 227.277 283.435 211.505 C 288.239 202.982 293.904 194.906 300.688 187.836 C 305.704 182.468 310.922 177.272 316.504 172.492 C 317.702 171.489 318.986 170.467 320.146 169.595 C 325.702 165.424 331.75 161.863 337.929 158.793 C 343.119 156.204 348.545 153.992 353.968 152.097 C 357.692 150.804 361.65 149.598 365.545 148.615 C 368.21 147.923 370.996 147.31 373.593 146.97 C 381.918 145.886 390.339 145.8 398.722 146.004 C 400.693 146.06 402.862 146.187 404.907 146.307 C 410.54 146.71 416.199 147.216 421.705 148.523 C 428.081 150.192 434.25 152.294 440.518 154.322 C 447.882 156.747 455.224 159.24 462.573 161.709 C 470.23 161.534 477.886 161.361 485.542 161.185 C 497.433 157.177 509.235 152.852 521.333 149.487 C 531.711 146.78 542.442 145.462 553.163 145.412 L 553.163 145.412 Z"/><path id="path29" style="display: inline; fill: rgb(155, 221, 235); fill-opacity: 1; stroke: none; stroke-width: 10; stroke-dasharray: none; stroke-opacity: 1;" d="M 551.224 155.507 C 539.783 155.787 528.378 157.792 517.573 161.579 C 507.198 165.03 496.948 168.844 486.63 172.457 C 484.987 172.628 483.304 172.487 481.645 172.535 C 474.514 172.542 467.383 172.549 460.251 172.556 C 445.279 167.55 430.409 162.217 415.23 157.859 C 412.178 156.989 409.02 156.594 405.855 156.459 C 397.293 155.951 388.707 156.011 380.137 156.243 C 375.715 156.426 371.362 157.34 367.121 158.568 C 352.987 162.427 339.427 168.658 327.659 177.43 C 321.83 181.852 316.562 186.961 311.451 192.181 C 306.286 197.561 301.288 203.157 297.2 209.415 C 287.963 223.488 281.315 239.237 277.471 255.619 C 275.553 263.74 274.441 272.044 274.147 280.383 C 273.807 291.159 273.756 301.966 274.618 312.72 C 275.988 327.546 279.608 342.1 284.556 356.119 C 288.962 368.414 294.414 380.399 301.58 391.347 C 313.111 409.086 328.176 424.422 345.24 436.878 C 359.337 447.132 374.962 455.312 391.503 460.839 C 406.173 465.84 421.309 469.443 436.617 471.838 C 444.303 473.037 452.055 473.859 459.836 474.053 C 469.895 474.396 479.964 474.351 490.026 474.157 C 496.821 474.016 503.605 473.489 510.34 472.575 C 527.264 470.397 544.027 466.71 560.166 461.135 C 579.06 454.506 596.735 444.545 612.469 432.189 C 624.905 422.356 636.184 410.975 645.448 398.087 C 650.895 390.532 655.516 382.401 659.393 373.936 C 666.837 357.856 671.917 340.724 674.942 323.28 C 675.831 318.171 676.355 313.006 676.562 307.826 C 677.014 298.18 677.078 288.51 676.643 278.863 C 676.421 273.86 675.818 268.881 674.866 263.966 C 672.002 248.324 666.749 233.083 658.968 219.196 C 655.371 212.656 651.257 206.381 646.393 200.71 C 640.338 193.52 633.615 186.893 626.39 180.884 C 620.053 175.694 612.965 171.495 605.655 167.836 C 589.58 159.873 571.702 155.408 553.731 155.48 C 552.896 155.474 552.06 155.5 551.224 155.507 L 551.224 155.507 Z"/><path id="path26" style="display:inline;fill:#9bddeb;fill-opacity:1;stroke:none;stroke-width:20;stroke-dasharray:none;stroke-opacity:1" d="M 226.046 -51.315 C 222.739 -51.099 220.102 -48.815 217.851 -46.593 C 196.763 -26.547 181.666 -0.073 175.988 28.523 C 173.49 41.091 172.985 54.056 174.594 66.772 C 176.235 80.627 180.265 94.206 186.598 106.644 C 191.172 115.772 196.887 124.264 202.834 132.544 C 206.044 137.103 209.254 141.662 212.464 146.22 C 219.054 137.912 225.636 129.587 232.732 121.7 C 239.413 114.131 246.104 106.553 253.279 99.445 C 256.983 96.109 260.974 92.813 264.689 89.409 C 269.385 85.223 274.058 81.015 278.74 76.814 C 271.533 68.77 263.765 61.217 257.06 52.732 C 253.373 48.019 250.056 43.021 247.101 37.818 C 246.666 37.007 246.067 35.965 245.592 35.053 C 243.181 30.52 241.07 25.83 239.249 21.031 C 238.947 20.196 238.535 19.105 238.211 18.162 C 236.259 12.553 234.684 6.89 233.529 1.013 C 232.895 -2.335 232.726 -5.76 232.511 -9.122 C 232.484 -9.842 232.438 -10.953 232.416 -11.728 C 232.181 -19.652 232.313 -27.617 233.127 -35.464 C 233.331 -37.967 234.015 -40.399 234.351 -42.879 C 234.646 -46.918 231.447 -50.982 227.339 -51.293 C 226.91 -51.331 226.477 -51.329 226.046 -51.315 L 226.046 -51.315 Z"/><path id="path27" style="display: inline; fill: rgb(155, 221, 235); fill-opacity: 1; stroke: none; stroke-width: 14.142; stroke-dasharray: none; stroke-opacity: 1;" d="M 723.462 -50.942 C 720.459 -51.06 717.8 -48.593 717.302 -45.7 C 716.922 -43.884 717.722 -42.13 717.929 -40.346 C 718.855 -35.12 719.382 -29.774 719.633 -24.565 C 719.967 -17.523 719.882 -10.327 719.068 -3.268 C 718.969 -2.538 718.846 -1.5 718.711 -0.655 C 717.666 6.54 715.605 13.56 712.844 20.278 C 710.069 27.116 706.838 33.777 703.124 40.155 C 698.757 47.488 693.366 54.167 687.443 60.297 C 682.515 65.468 677.489 70.544 672.537 75.691 C 677.395 79.746 682.288 83.764 686.978 88.015 C 688.553 89.452 690.237 91.049 691.825 92.58 C 700.52 100.903 708.893 109.667 716.869 118.619 C 720.925 123.17 724.786 127.889 728.612 132.634 C 730.393 134.738 732.273 136.926 734.795 138.15 C 737.567 139.403 741.144 138.768 743.108 136.376 C 745.312 134.055 747.005 131.319 748.842 128.713 C 753.293 122.103 757.559 115.358 761.407 108.377 C 770.717 90.883 775.376 71.032 775.428 51.246 C 775.441 37.574 773.278 23.861 768.721 10.957 C 765.319 1.725 760.801 -7.055 755.878 -15.559 C 751.68 -22.667 746.799 -29.358 741.41 -35.608 C 737.55 -40.149 733.578 -44.637 729.058 -48.538 C 727.461 -49.824 725.582 -50.965 723.462 -50.942 L 723.462 -50.942 Z"/><path d="M 231.086 -76.211 C 222.086 -73.011 205.786 -58.711 192.586 -42.511 C 175.786 -22.011 163.986 3.589 159.886 28.189 C 157.586 41.689 158.286 68.289 161.286 81.289 C 166.586 104.389 175.986 123.489 193.686 147.089 L 199.186 154.389 L 196.286 158.689 C 167.086 201.989 145.186 263.289 152.986 279.789 C 155.186 284.389 161.686 289.789 165.986 290.589 C 169.986 291.389 170.086 291.989 167.386 299.789 C 163.986 309.389 159.586 327.689 156.786 343.189 C 153.286 362.889 152.286 396.189 154.786 412.989 C 158.686 439.589 166.686 457.289 177.086 462.289 C 180.186 463.789 182.886 464.289 187.286 464.089 L 193.386 463.889 L 198.886 474.589 C 209.786 495.689 220.386 511.089 234.686 526.689 C 255.286 549.289 277.786 566.389 304.386 579.789 C 320.986 588.089 331.986 591.489 343.086 591.589 C 351.886 591.689 352.386 591.589 356.986 588.289 L 361.786 584.889 L 372.386 590.189 C 391.386 599.689 413.686 606.489 439.386 610.889 C 452.686 613.089 491.386 613.389 504.886 611.389 C 531.386 607.389 556.186 600.189 576.186 590.589 L 587.686 585.189 L 590.786 587.489 C 600.686 594.989 617.686 593.089 642.086 581.689 C 686.186 561.089 730.886 516.589 751.586 472.389 L 755.486 464.189 L 761.986 464.189 C 765.486 464.189 769.886 463.589 771.686 462.789 C 779.986 459.389 787.386 446.989 791.786 429.389 C 795.886 412.689 796.686 403.789 796.086 380.189 C 795.286 352.189 791.886 330.589 784.386 306.689 C 779.686 291.589 779.686 292.589 783.586 291.289 C 789.686 289.189 794.286 285.189 796.986 279.489 C 799.386 274.589 799.586 273.389 799.086 266.389 C 797.186 240.989 778.486 195.389 756.086 161.889 L 750.286 153.089 L 755.086 147.789 C 770.286 131.189 784.686 102.589 789.986 78.689 C 792.086 68.689 792.886 45.389 791.486 35.089 C 786.886 2.889 771.286 -28.811 748.086 -53.411 C 739.786 -62.311 728.786 -71.011 721.486 -74.811 C 715.586 -77.811 706.786 -78.611 702.686 -76.411 C 694.586 -72.311 693.586 -65.911 698.286 -50.011 C 702.586 -35.511 703.786 -26.411 703.086 -13.011 C 702.186 5.389 696.586 21.489 685.386 37.689 C 680.186 45.089 665.086 61.189 663.186 61.189 C 662.686 61.189 657.086 57.289 650.786 52.589 C 617.886 27.889 574.986 6.489 546.886 0.789 C 529.386 -2.811 521.286 -2.111 516.486 3.289 C 515.086 4.889 513.586 6.189 513.086 6.189 C 512.586 6.189 507.586 3.289 502.086 -0.211 C 488.186 -8.911 479.686 -13.011 465.986 -17.711 C 450.886 -22.911 441.486 -24.811 430.586 -24.811 C 420.886 -24.811 415.386 -23.411 409.186 -19.311 C 402.286 -14.711 399.486 -4.811 402.786 3.289 C 403.486 5.189 403.986 7.089 403.786 7.689 C 403.486 8.289 397.886 8.589 388.686 8.389 C 351.686 7.589 332.386 16.889 334.686 34.389 C 335.286 38.789 335.386 38.689 323.986 43.689 C 315.986 47.189 298.186 56.889 291.186 61.589 L 288.386 63.389 L 280.286 55.589 C 265.586 41.289 255.986 26.089 250.786 8.589 C 248.686 1.389 248.086 -3.011 247.686 -14.411 C 247.086 -30.311 247.886 -36.811 252.386 -51.411 C 256.886 -65.911 256.086 -71.311 249.086 -75.711 C 244.986 -78.211 236.986 -78.411 231.086 -76.211 Z M 227.786 -43.711 C 224.386 -30.711 224.086 -8.211 226.986 4.989 C 230.586 21.189 239.786 41.989 248.586 53.689 C 251.486 57.489 257.386 64.289 261.686 68.589 C 265.886 72.989 269.286 76.589 269.186 76.689 C 266.686 77.989 247.586 95.289 240.886 102.289 C 232.486 110.989 219.186 126.489 214.986 132.289 L 213.286 134.689 L 210.386 131.189 C 200.686 119.689 189.786 100.289 185.586 87.189 C 178.486 65.189 178.686 37.789 186.086 15.189 C 192.386 -4.011 203.686 -22.611 218.986 -38.711 C 224.286 -44.211 228.686 -48.811 228.886 -48.811 C 228.986 -48.811 228.486 -46.511 227.786 -43.711 Z M 739.786 -29.311 C 772.486 11.089 779.086 58.689 758.286 102.889 C 754.486 110.789 745.086 125.589 739.886 131.689 L 737.286 134.689 L 734.586 131.189 C 720.486 113.089 703.686 95.189 687.386 80.989 L 680.986 75.289 L 689.486 66.489 C 700.386 55.289 706.386 47.089 712.386 35.189 C 722.186 15.589 725.786 1.389 725.686 -17.811 C 725.586 -28.911 723.986 -41.311 721.786 -47.311 C 720.686 -50.311 731.586 -39.511 739.786 -29.311 Z M 449.886 0.689 C 469.686 6.389 490.686 17.889 508.386 32.789 C 513.986 37.489 520.086 41.789 521.986 42.289 C 526.286 43.589 530.586 41.389 532.386 37.189 C 533.486 34.589 533.386 33.289 531.586 27.889 C 530.486 24.489 529.786 21.489 529.986 21.289 C 531.186 20.089 547.686 23.489 558.586 27.189 C 586.986 36.689 628.886 61.689 662.386 89.089 C 675.486 99.789 697.086 120.789 707.386 132.689 C 737.286 167.389 762.186 211.689 772.886 249.189 C 776.786 262.889 777.786 268.789 776.386 269.689 C 775.786 269.989 772.786 268.689 769.586 266.789 C 766.386 264.789 762.286 262.689 760.386 262.189 C 750.386 259.289 744.886 266.889 749.186 277.689 C 750.286 280.489 753.186 287.589 755.586 293.689 C 773.386 337.689 779.086 387.789 770.286 422.489 C 767.986 431.589 764.586 441.189 763.586 441.189 C 763.186 441.189 761.686 439.189 760.186 436.689 C 755.986 429.789 749.886 428.289 744.586 432.689 C 742.286 434.589 740.686 437.689 738.286 444.989 C 736.586 450.289 732.686 459.589 729.686 465.689 C 714.186 496.789 690.686 523.789 659.786 545.889 C 642.886 557.989 619.386 569.189 610.886 569.189 C 608.286 569.189 608.186 568.989 608.786 565.589 C 609.786 560.289 607.886 555.689 603.886 553.789 C 599.286 551.589 596.886 552.289 586.086 559.489 C 558.686 577.589 527.086 587.789 488.186 591.289 C 446.186 594.989 396.286 582.489 363.086 559.889 C 355.186 554.489 352.486 553.189 349.386 553.189 C 344.486 553.189 341.786 556.289 340.886 563.189 C 340.486 565.989 339.786 568.489 339.286 568.789 C 337.586 569.789 324.186 565.189 313.886 559.989 C 282.686 544.389 251.986 516.789 231.586 486.189 C 223.786 474.389 215.286 457.289 211.386 445.589 C 207.786 434.789 204.386 430.189 199.886 430.189 C 195.886 430.189 191.986 432.689 189.886 436.589 C 188.786 438.589 187.586 440.189 187.186 440.189 C 184.186 440.189 178.986 424.289 176.886 408.589 C 171.986 371.089 179.486 326.989 198.286 282.989 C 203.986 269.589 203.586 264.589 196.586 262.089 C 192.686 260.789 188.186 262.089 180.086 266.889 C 176.886 268.789 173.986 270.089 173.586 269.789 C 172.686 268.789 174.986 258.289 179.086 245.189 C 192.786 200.489 221.786 154.789 261.886 114.689 C 296.986 79.489 329.386 60.689 359.186 58.189 C 368.186 57.489 371.686 55.389 372.686 50.389 C 373.486 46.189 371.986 43.889 365.486 39.189 C 357.886 33.689 358.486 32.989 371.986 31.189 C 388.686 28.989 407.186 30.889 424.686 36.589 C 434.986 39.989 440.286 39.989 443.786 36.589 C 448.586 31.789 447.086 27.389 436.586 15.389 C 427.386 4.889 424.386 0.789 424.386 -1.311 C 424.386 -2.911 425.086 -3.011 432.686 -2.511 C 437.186 -2.211 444.986 -0.711 449.886 0.689 Z" id="path1" fill="#08414d" stroke="none" style="stroke-width: 0.1;"/><path d="M 372.386 139.689 C 344.686 144.989 320.986 156.989 302.186 175.389 C 277.686 199.289 263.286 229.089 257.786 267.189 C 255.486 283.189 256.286 315.089 259.386 330.689 C 269.586 382.889 292.786 420.789 332.586 450.489 C 366.986 475.989 413.186 490.289 467.386 491.889 C 518.486 493.389 567.086 481.889 603.886 459.689 C 621.886 448.789 641.486 431.689 654.186 415.789 C 689.886 371.089 703.886 305.489 689.786 248.989 C 678.586 204.189 651.486 170.389 611.186 151.189 C 592.686 142.389 573.986 138.189 553.386 138.189 C 533.786 138.189 520.586 140.989 493.386 150.789 C 483.786 154.289 481.986 154.589 472.886 154.589 C 464.186 154.589 461.786 154.189 453.886 151.289 C 437.786 145.489 427.986 142.389 420.386 140.689 C 409.786 138.389 382.186 137.789 372.386 139.689 Z M 415.986 162.189 C 420.486 163.189 430.186 166.289 437.486 169.089 C 456.786 176.189 462.386 177.489 473.386 177.489 C 484.186 177.489 490.786 175.989 505.686 170.089 C 528.386 160.989 546.286 157.989 564.986 160.089 C 615.186 165.789 655.186 201.989 668.386 253.689 C 679.786 298.389 670.486 352.689 644.886 391.689 C 625.286 421.289 592.386 446.089 556.486 458.089 C 499.286 477.189 428.686 474.189 375.986 450.289 C 343.186 435.389 312.786 406.689 297.286 375.989 C 289.486 360.489 282.786 339.889 279.786 321.689 C 277.386 307.589 277.386 278.089 279.786 264.689 C 284.986 235.889 296.286 213.189 315.186 193.889 C 333.286 175.489 352.686 165.089 377.386 160.589 C 387.086 158.889 405.286 159.589 415.986 162.189 Z" id="path2" fill="#08414d" stroke="none" style="stroke-width: 0.1;"/><path style="fill: rgb(238, 251, 254); stroke: rgb(28, 64, 76); stroke-width: 8px; transform-box: fill-box; transform-origin: 50% 50%;" d="M 445.992 312.38 C 448.882 309.804 461.452 311.541 472.222 319.513 C 482.992 327.483 493.112 339.755 498.062 351.818 C 503.012 363.883 505.842 377.667 506.022 391.878 C 506.192 406.089 503.712 420.727 498.042 434.497 C 495.392 440.915 492.162 447.24 488.372 452.944 C 484.582 458.649 481.392 463.091 476.522 467.026 C 471.662 470.961 464.952 474.876 459.882 476.55 C 454.802 478.223 450.182 478.3 447.152 475.845 C 442.882 472.373 440.402 461.732 438.952 447.002 C 437.502 432.271 437.082 413.454 436.942 393.63 C 436.792 373.808 437.212 355.069 438.732 340.259 C 440.252 325.447 441.722 316.494 445.992 312.38 Z" id="object-1" transform="matrix(0, 1, -1, 0, 0.000044, -0.000034)"/><path style="fill: none; stroke: rgb(0, 0, 0);" d="M 389.376 381.429 C 413.114 400.343 526.6 400.121 552.839 381.429" id="object-2"/><path style="stroke: rgb(0, 0, 0); fill: none; stroke-width: 3;" d="M 390.689 382 C 389.004 380.314 389.611 380.39 388.006 380.39" id="object-3"/><path style="fill: rgb(216, 216, 216); stroke: rgb(0, 0, 0); stroke-width: 3;" d="M 551.685 382 C 554.123 380.78 552.222 381.836 552.222 379.853" id="object-4"/><line style="fill: rgb(216, 216, 216); stroke: rgb(0, 0, 0); stroke-width: 1;" x1="409.664" y1="363.288" x2="409.665" y2="409.987" id="object-5"/><line style="fill: rgb(216, 216, 216); stroke: rgb(0, 0, 0); stroke-width: 1;" x1="535.965" y1="363.288" x2="537.026" y2="407.864" id="object-6"/><line style="fill: rgb(216, 216, 216); stroke: rgb(0, 0, 0); stroke-width: 1;" x1="435.138" y1="361.165" x2="434.076" y2="422.723" id="object-7"/><line style="fill: rgb(216, 216, 216); stroke: rgb(0, 0, 0); stroke-width: 1;" x1="510.493" y1="360.104" x2="510.493" y2="421.662" id="object-8"/><line style="fill: rgb(216, 216, 216); stroke: rgb(0, 0, 0); stroke-width: 1;" x1="486.082" y1="360.104" x2="486.081" y2="428.03" id="object-9"/><line style="fill: rgb(216, 216, 216); stroke: rgb(0, 0, 0); stroke-width: 1;" x1="459.548" y1="360.104" x2="458.487" y2="428.03" id="object-10"/><path d="M 372.616 259.897 C 363.046 261.404 357.566 266.138 355.526 270.074 C 353.326 274.204 353.116 286.66 356.596 283.873 C 361.966 279.581 387.046 269.649 408.846 283.873 C 411.546 285.631 411.286 280.517 411.496 276.633 C 411.916 268.785 406.366 263.464 395.516 260.196 C 387.156 257.682 381.246 258.585 372.616 259.897 Z" id="path-18" style="display: inline; stroke-width: 0.1;" fill="#08414d" stroke="none"/><path d="M 557.977 259.134 C 548.407 260.641 542.927 265.375 540.887 269.311 C 538.687 273.441 538.477 285.897 541.957 283.11 C 547.327 278.818 572.407 268.886 594.207 283.11 C 596.907 284.868 596.647 279.754 596.857 275.87 C 597.277 268.022 591.727 262.701 580.877 259.433 C 572.517 256.919 566.607 257.822 557.977 259.134 Z" id="path-19" style="display: inline; stroke-width: 0.1;" fill="#08414d" stroke="none"/></g></svg>