<?xml version="1.0" encoding="utf-8"?>
<svg xmlns="http://www.w3.org/2000/svg" viewBox="334.2244 -231.8974 647.9149 690.4615" width="647.915px" height="690.462px" preserveAspectRatio="none"><g id="object-1" transform="matrix(1, 0, 0, 1, -513.8733520507812, -247.05816650390622)"><path id="path-1" style="display: inline; fill: rgb(235, 252, 255); fill-opacity: 1; stroke: none; stroke-width: 10; stroke-dasharray: none; stroke-opacity: 1;" d="M 1123.89 83.212 C 1120.8 83.21 1117.38 84.089 1115.48 86.729 C 1113.2 89.721 1113.6 94.027 1115.53 97.091 C 1119.24 103.119 1124.11 108.293 1128.5 113.81 C 1129.64 115.201 1130.81 116.667 1131.82 118.036 C 1133.22 119.951 1134.59 121.919 1135.6 124.073 C 1134.82 125 1133.55 124.677 1132.51 124.588 C 1128.63 124.095 1124.9 122.927 1121.18 121.932 C 1116.17 120.505 1111.13 119.19 1105.99 118.295 C 1092.46 115.762 1078.48 115.176 1064.86 117.391 C 1061.29 117.92 1057.59 118.487 1054.41 120.31 C 1051.39 122.198 1049.63 126.167 1050.87 129.61 C 1051.9 132.686 1054.53 134.799 1056.86 136.897 C 1058.69 138.484 1060.74 139.936 1062.15 141.915 C 1062.1 142.751 1061.14 142.663 1060.56 142.919 C 1056.85 143.851 1053.01 143.992 1049.26 144.686 C 1032.67 147.371 1016.91 153.962 1002.62 162.695 C 986.921 172.251 972.78 184.146 959.52 196.819 C 943.856 211.892 929.276 228.119 916.251 245.533 C 898.122 269.795 883.019 296.458 872.769 325.004 C 869.315 334.573 866.262 344.305 864.028 354.236 C 863.427 357.163 862.876 360.213 863.415 363.19 C 864.116 366.521 867.048 369.358 870.511 369.544 C 873.461 369.747 876.052 368.094 878.623 366.903 C 882.365 365.088 885.994 362.88 890.061 361.869 C 890.552 361.862 891.333 361.737 891.585 362.262 C 891.639 363.803 890.968 365.258 890.581 366.725 C 889.159 371.066 887.453 375.125 885.78 379.38 C 879.192 396.166 873.629 413.398 870.034 431.086 C 868.341 439.348 866.866 447.674 866.116 456.081 C 865.284 466.7 865.281 477.366 865.511 488.01 C 865.697 495.068 866.15 502.149 867.567 509.08 C 868.906 515.907 870.682 522.661 873.064 529.201 C 874.139 531.952 875.306 534.765 877.276 537.007 C 879.453 539.37 883.016 540.625 886.108 539.438 C 889.151 538.375 891.109 535.646 892.872 533.109 C 893.768 531.97 894.814 530.639 896.349 530.452 C 898.119 532.808 899.161 535.617 900.29 538.317 C 902.945 545.024 905.401 551.82 908.54 558.322 C 917.323 577.158 929.304 594.419 943.346 609.709 C 958.552 626.373 976.025 641.021 995.347 652.69 C 1004.91 658.301 1014.99 663.043 1025.42 666.816 C 1028.69 667.94 1032.08 668.966 1035.57 668.917 C 1038.71 668.768 1041.64 666.757 1042.95 663.897 C 1044.54 660.728 1044.34 657.025 1045.7 653.787 C 1045.84 653.04 1046.61 653.527 1047.05 653.683 C 1052.21 656.113 1056.76 659.608 1061.68 662.463 C 1081.79 674.504 1104.09 682.642 1126.98 687.449 C 1135.6 689.233 1144.31 690.615 1153.08 691.288 C 1162.7 691.876 1172.36 691.576 1181.98 691.277 C 1188.97 691.038 1195.96 690.451 1202.86 689.262 C 1222.48 686.12 1241.98 681.242 1260.1 672.949 C 1270.52 668.223 1280.45 662.478 1290.07 656.307 C 1292.25 655.02 1294.42 653.537 1296.91 652.973 C 1298.2 653.658 1298.57 655.235 1298.43 656.593 C 1298.21 659.32 1297.59 661.954 1297.43 664.694 C 1297.58 667.423 1300.4 669.477 1303.04 669.038 C 1307.22 669.044 1311.5 669.195 1315.52 667.856 C 1323.21 665.748 1330.41 662.215 1337.5 658.613 C 1363.31 645.145 1386.01 626.103 1404.84 603.977 C 1417.61 588.96 1428.32 572.161 1436.2 554.082 C 1438.81 548.238 1441.02 542.229 1443.43 536.305 C 1444.21 534.493 1445 532.501 1446.33 530.962 C 1447.2 530.065 1448.6 530.653 1449.21 531.553 C 1451.47 534.052 1452.98 537.272 1455.83 539.186 C 1458.91 541.196 1463.39 540.738 1465.89 537.985 C 1468.42 535.402 1469.43 531.811 1470.61 528.488 C 1473.14 520.64 1474.97 512.574 1476.42 504.46 C 1477.4 498.828 1477.83 493.116 1477.87 487.403 C 1478.1 477.333 1478.06 467.236 1477.16 457.198 C 1476.02 446.065 1474.11 435.014 1471.56 424.12 C 1467.82 408.312 1462.51 392.922 1456.54 377.832 C 1454.81 373.284 1452.84 368.777 1451.85 363.993 C 1451.77 363.332 1451.62 362.577 1452 361.977 C 1454.37 361.526 1456.62 362.775 1458.69 363.748 C 1462.72 365.752 1466.57 368.327 1471.01 369.334 C 1474.89 370.028 1479.25 367.71 1480.39 363.838 C 1481.55 360.489 1480.55 356.945 1479.93 353.597 C 1477.97 344.395 1475.01 335.446 1472 326.547 C 1468.17 315.502 1463.48 304.767 1458.19 294.349 C 1447.09 272.248 1433.76 251.27 1418.48 231.817 C 1412.26 223.885 1405.5 216.377 1398.46 209.159 C 1388.15 198.459 1377.51 188.038 1366.07 178.545 C 1348.94 164.259 1330.63 151.411 1311.59 139.803 C 1298.68 132.001 1285.39 124.771 1271.55 118.75 C 1263.17 115.101 1254.5 112.09 1245.61 109.922 C 1240.29 108.596 1234.93 107.34 1229.47 106.764 C 1226.77 106.48 1223.82 107.045 1221.82 109.003 C 1219.72 111.012 1219.02 114.224 1219.88 116.976 C 1220.65 120.33 1221.62 123.669 1222.46 126.983 C 1222.12 127.413 1221.76 128.117 1221.19 128.164 C 1218.12 126.754 1215.5 124.559 1212.81 122.545 C 1207.78 118.584 1202.79 114.576 1197.51 110.952 C 1184.18 101.657 1169.78 93.743 1154.36 88.495 C 1144.56 85.187 1134.27 83.06 1123.89 83.212 L 1123.89 83.212 Z M 1249.87 238.305 C 1253.87 238.311 1257.77 238.49 1261.73 238.856 C 1264.6 239.122 1267.47 239.486 1270.39 239.958 C 1274.34 240.597 1278.45 241.469 1282.31 242.487 C 1303.83 248.116 1323.72 259.443 1340.03 274.528 C 1347.71 281.565 1354.22 289.795 1360.04 298.415 C 1368.4 311.152 1374.46 325.324 1378.45 340.005 C 1381.55 351.415 1383.45 363.316 1384.19 375.18 C 1384.69 383.158 1384.67 391.219 1384.18 399.196 C 1383.91 403.439 1383.52 407.593 1382.99 411.829 C 1379.14 441.98 1368.4 471.582 1350.85 496.565 C 1347.22 501.768 1343.18 506.731 1338.91 511.347 C 1330.13 520.819 1320.5 529.512 1310.19 537.297 C 1302.85 542.855 1295 547.74 1286.82 551.979 C 1268.69 561.355 1248.97 567.822 1228.95 571.971 C 1217.96 574.241 1206.77 575.823 1195.63 576.755 C 1191.45 577.107 1187.33 577.181 1183.11 577.262 C 1174.06 577.43 1165 577.53 1155.95 577.188 C 1151.18 576.9 1146.33 576.401 1141.52 575.969 C 1129.14 574.797 1116.82 572.745 1104.79 569.767 C 1094.05 567.114 1083.34 563.636 1073.03 559.37 C 1070.62 558.365 1068.08 557.256 1065.65 556.139 C 1047.44 547.734 1030.22 536.557 1015.78 522.488 C 1007.22 514.147 999.407 505.139 992.52 495.372 C 989.357 490.946 986.666 486.212 984.139 481.401 C 980.077 473.731 976.34 465.878 973.116 457.818 C 970.582 451.176 968.658 444.321 966.823 437.459 C 965.696 433.189 964.671 428.819 963.708 424.456 C 963.492 423.398 963.23 422.089 963.03 420.926 C 962.3 416.847 961.797 412.541 961.488 408.381 C 960.594 396.773 960.397 385.114 960.815 373.481 C 961.037 367.538 961.458 361.419 962.531 355.495 C 965.799 337.696 971.152 320.171 980.138 304.398 C 984.942 295.875 990.607 287.8 997.39 280.729 C 1002.41 275.362 1007.63 270.166 1013.21 265.386 C 1014.4 264.382 1015.69 263.361 1016.85 262.488 C 1022.4 258.317 1028.45 254.756 1034.63 251.687 C 1039.82 249.098 1045.25 246.886 1050.67 244.991 C 1054.39 243.698 1058.35 242.492 1062.25 241.509 C 1064.91 240.816 1067.7 240.204 1070.3 239.864 C 1078.62 238.78 1087.04 238.694 1095.42 238.897 C 1097.39 238.954 1099.56 239.081 1101.61 239.201 C 1107.24 239.604 1112.9 240.11 1118.41 241.417 C 1124.78 243.086 1130.95 245.188 1137.22 247.216 C 1144.59 249.641 1151.93 252.133 1159.28 254.602 C 1166.93 254.428 1174.59 254.254 1182.24 254.079 C 1194.14 250.07 1205.94 245.746 1218.04 242.38 C 1228.41 239.674 1239.14 238.356 1249.87 238.305 L 1249.87 238.305 Z"/><path id="path-2" style="display: inline; fill-opacity: 1; stroke: none; stroke-width: 10; stroke-dasharray: none; stroke-opacity: 1; fill: rgb(235, 155, 194);" d="M 1247.93 248.401 C 1236.49 248.681 1225.08 250.685 1214.28 254.473 C 1203.9 257.924 1193.65 261.737 1183.33 265.35 C 1181.69 265.522 1180.01 265.38 1178.35 265.429 C 1171.22 265.436 1164.09 265.443 1156.95 265.45 C 1141.98 260.444 1127.11 255.111 1111.93 250.753 C 1108.88 249.883 1105.72 249.487 1102.56 249.353 C 1094 248.845 1085.41 248.905 1076.84 249.137 C 1072.42 249.32 1068.07 250.234 1063.82 251.462 C 1049.69 255.321 1036.13 261.552 1024.36 270.324 C 1018.53 274.746 1013.26 279.854 1008.15 285.075 C 1002.99 290.454 997.991 296.05 993.903 302.309 C 984.666 316.382 978.018 332.13 974.174 348.512 C 972.256 356.633 971.143 364.938 970.849 373.277 C 970.51 384.053 970.459 394.86 971.321 405.614 C 972.691 420.44 976.311 434.994 981.259 449.012 C 985.664 461.308 991.116 473.293 998.283 484.24 C 1009.81 501.98 1024.88 517.315 1041.94 529.772 C 1056.04 540.026 1071.66 548.206 1088.21 553.732 C 1102.88 558.734 1118.01 562.337 1133.32 564.732 C 1141.01 565.931 1148.76 566.753 1156.54 566.947 C 1166.6 567.29 1176.67 567.245 1186.73 567.051 C 1193.52 566.91 1200.31 566.383 1207.04 565.469 C 1223.97 563.29 1240.73 559.603 1256.87 554.029 C 1275.76 547.4 1293.44 537.439 1309.17 525.082 C 1321.61 515.25 1332.89 503.868 1342.15 490.981 C 1347.6 483.425 1352.22 475.295 1356.1 466.83 C 1363.54 450.75 1368.62 433.618 1371.64 416.173 C 1372.53 411.065 1373.06 405.9 1373.27 400.72 C 1373.72 391.074 1373.78 381.404 1373.35 371.756 C 1373.12 366.754 1372.52 361.774 1371.57 356.86 C 1368.7 341.217 1363.45 325.977 1355.67 312.089 C 1352.07 305.55 1347.96 299.275 1343.1 293.603 C 1337.04 286.414 1330.32 279.787 1323.09 273.778 C 1316.76 268.588 1309.67 264.389 1302.36 260.729 C 1286.28 252.766 1268.4 248.301 1250.43 248.373 C 1249.6 248.367 1248.76 248.393 1247.93 248.401 L 1247.93 248.401 Z"/><path id="path-3" style="display: inline; fill-opacity: 1; stroke: none; stroke-width: 20; stroke-dasharray: none; stroke-opacity: 1; fill: rgb(235, 155, 194);" d="M 922.749 41.579 C 919.441 41.795 916.804 44.078 914.554 46.301 C 893.466 66.347 878.369 92.821 872.69 121.416 C 870.193 133.984 869.687 146.95 871.297 159.666 C 872.938 173.52 876.968 187.1 883.301 199.538 C 887.875 208.666 893.59 217.158 899.537 225.438 C 902.747 229.996 905.956 234.556 909.167 239.114 C 915.757 230.805 922.339 222.481 929.434 214.593 C 936.116 207.025 942.807 199.447 949.982 192.338 C 953.685 189.002 957.677 185.706 961.392 182.303 C 966.087 178.117 970.76 173.909 975.442 169.708 C 968.236 161.664 960.467 154.111 953.763 145.625 C 950.076 140.913 946.758 135.914 943.804 130.712 C 943.369 129.901 942.77 128.859 942.295 127.946 C 939.884 123.414 937.773 118.724 935.952 113.925 C 935.65 113.09 935.237 111.999 934.914 111.055 C 932.962 105.447 931.386 99.784 930.231 93.907 C 929.598 90.558 929.429 87.134 929.214 83.772 C 929.186 83.051 929.14 81.941 929.119 81.166 C 928.883 73.241 929.016 65.277 929.83 57.43 C 930.034 54.926 930.717 52.495 931.054 50.014 C 931.349 45.976 928.15 41.912 924.042 41.6 C 923.612 41.563 923.179 41.565 922.749 41.579 L 922.749 41.579 Z"/><path id="path-4" style="display: inline; fill-opacity: 1; stroke: none; stroke-width: 14.142; stroke-dasharray: none; stroke-opacity: 1; fill: rgb(235, 155, 194);" d="M 1420.16 41.952 C 1417.16 41.834 1414.5 44.301 1414.01 47.194 C 1413.62 49.01 1414.42 50.763 1414.63 52.548 C 1415.56 57.774 1416.09 63.12 1416.34 68.329 C 1416.67 75.37 1416.59 82.567 1415.77 89.626 C 1415.67 90.356 1415.55 91.394 1415.41 92.239 C 1414.37 99.434 1412.31 106.453 1409.55 113.172 C 1406.77 120.01 1403.54 126.67 1399.83 133.048 C 1395.46 140.382 1390.07 147.06 1384.15 153.19 C 1379.22 158.361 1374.19 163.438 1369.24 168.585 C 1374.1 172.64 1378.99 176.657 1383.68 180.909 C 1385.26 182.345 1386.94 183.942 1388.53 185.473 C 1397.22 193.796 1405.6 202.561 1413.57 211.512 C 1417.63 216.064 1421.49 220.783 1425.32 225.528 C 1427.1 227.632 1428.98 229.819 1431.5 231.044 C 1434.27 232.296 1437.85 231.661 1439.81 229.269 C 1442.02 226.949 1443.71 224.213 1445.55 221.607 C 1449.99 214.997 1454.26 208.252 1458.11 201.271 C 1467.42 183.776 1472.08 163.926 1472.13 144.14 C 1472.14 130.468 1469.98 116.755 1465.42 103.851 C 1462.02 94.618 1457.5 85.839 1452.58 77.335 C 1448.38 70.227 1443.5 63.536 1438.11 57.286 C 1434.25 52.745 1430.28 48.256 1425.76 44.356 C 1424.16 43.07 1422.28 41.929 1420.16 41.952 L 1420.16 41.952 Z"/><path d="M 927.789 16.683 C 918.789 19.883 902.489 34.183 889.289 50.383 C 872.489 70.883 860.689 96.483 856.589 121.083 C 854.289 134.583 854.989 161.183 857.989 174.183 C 863.289 197.283 872.689 216.383 890.389 239.983 L 895.889 247.283 L 892.989 251.583 C 863.789 294.883 841.889 356.183 849.689 372.683 C 851.889 377.283 858.389 382.683 862.689 383.483 C 866.689 384.283 866.789 384.883 864.089 392.683 C 860.689 402.283 856.289 420.583 853.489 436.083 C 849.989 455.783 848.989 489.083 851.489 505.883 C 855.389 532.483 863.389 550.183 873.789 555.183 C 876.889 556.683 879.589 557.183 883.989 556.983 L 890.089 556.783 L 895.589 567.483 C 906.489 588.583 917.089 603.983 931.389 619.583 C 951.989 642.183 974.489 659.283 1001.09 672.683 C 1017.69 680.983 1028.69 684.383 1039.79 684.483 C 1048.59 684.583 1049.09 684.483 1053.69 681.183 L 1058.49 677.783 L 1069.09 683.083 C 1088.09 692.583 1110.39 699.383 1136.09 703.783 C 1149.39 705.983 1188.09 706.283 1201.59 704.283 C 1228.09 700.283 1252.89 693.083 1272.89 683.483 L 1284.39 678.083 L 1287.49 680.383 C 1297.39 687.883 1314.39 685.983 1338.79 674.583 C 1382.89 653.983 1427.59 609.483 1448.29 565.283 L 1452.19 557.083 L 1458.69 557.083 C 1462.19 557.083 1466.59 556.483 1468.39 555.683 C 1476.69 552.283 1484.09 539.883 1488.49 522.283 C 1492.59 505.583 1493.39 496.683 1492.79 473.083 C 1491.99 445.083 1488.59 423.483 1481.09 399.583 C 1476.39 384.483 1476.39 385.483 1480.29 384.183 C 1486.39 382.083 1490.99 378.083 1493.69 372.383 C 1496.09 367.483 1496.29 366.283 1495.79 359.283 C 1493.89 333.883 1475.19 288.283 1452.79 254.783 L 1446.99 245.983 L 1451.79 240.683 C 1466.99 224.083 1481.39 195.483 1486.69 171.583 C 1488.79 161.583 1489.59 138.283 1488.19 127.983 C 1483.59 95.783 1467.99 64.083 1444.79 39.483 C 1436.49 30.583 1425.49 21.883 1418.19 18.083 C 1412.29 15.083 1403.49 14.283 1399.39 16.483 C 1391.29 20.583 1390.29 26.983 1394.99 42.883 C 1399.29 57.383 1400.49 66.483 1399.79 79.883 C 1398.89 98.283 1393.29 114.383 1382.09 130.583 C 1376.89 137.983 1361.79 154.083 1359.89 154.083 C 1359.39 154.083 1353.79 150.183 1347.49 145.483 C 1314.59 120.783 1271.69 99.383 1243.59 93.683 C 1226.09 90.083 1217.99 90.783 1213.19 96.183 C 1211.79 97.783 1210.29 99.083 1209.79 99.083 C 1209.29 99.083 1204.29 96.183 1198.79 92.683 C 1184.89 83.983 1176.39 79.883 1162.69 75.183 C 1147.59 69.983 1138.19 68.083 1127.29 68.083 C 1117.59 68.083 1112.09 69.483 1105.89 73.583 C 1098.99 78.183 1096.19 88.083 1099.49 96.183 C 1100.19 98.083 1100.69 99.983 1100.49 100.583 C 1100.19 101.183 1094.59 101.483 1085.39 101.283 C 1048.39 100.483 1029.09 109.783 1031.39 127.283 C 1031.99 131.683 1032.09 131.583 1020.69 136.583 C 1012.69 140.083 994.889 149.783 987.889 154.483 L 985.089 156.283 L 976.989 148.483 C 962.289 134.183 952.689 118.983 947.489 101.483 C 945.389 94.283 944.789 89.883 944.389 78.483 C 943.789 62.583 944.589 56.083 949.089 41.483 C 953.589 26.983 952.789 21.583 945.789 17.183 C 941.689 14.683 933.689 14.483 927.789 16.683 Z M 924.489 49.183 C 921.089 62.183 920.789 84.683 923.689 97.883 C 927.289 114.083 936.489 134.883 945.289 146.583 C 948.189 150.383 954.089 157.183 958.389 161.483 C 962.589 165.883 965.989 169.483 965.889 169.583 C 963.389 170.883 944.289 188.183 937.589 195.183 C 929.189 203.883 915.889 219.383 911.689 225.183 L 909.989 227.583 L 907.089 224.083 C 897.389 212.583 886.489 193.183 882.289 180.083 C 875.189 158.083 875.389 130.683 882.789 108.083 C 889.089 88.883 900.389 70.283 915.689 54.183 C 920.989 48.683 925.389 44.083 925.589 44.083 C 925.689 44.083 925.189 46.383 924.489 49.183 Z M 1436.49 63.583 C 1469.19 103.983 1475.79 151.583 1454.99 195.783 C 1451.19 203.683 1441.79 218.483 1436.59 224.583 L 1433.99 227.583 L 1431.29 224.083 C 1417.19 205.983 1400.39 188.083 1384.09 173.883 L 1377.69 168.183 L 1386.19 159.383 C 1397.09 148.183 1403.09 139.983 1409.09 128.083 C 1418.89 108.483 1422.49 94.283 1422.39 75.083 C 1422.29 63.983 1420.69 51.583 1418.49 45.583 C 1417.39 42.583 1428.29 53.383 1436.49 63.583 Z M 1146.59 93.583 C 1166.39 99.283 1187.39 110.783 1205.09 125.683 C 1210.69 130.383 1216.79 134.683 1218.69 135.183 C 1222.99 136.483 1227.29 134.283 1229.09 130.083 C 1230.19 127.483 1230.09 126.183 1228.29 120.783 C 1227.19 117.383 1226.49 114.383 1226.69 114.183 C 1227.89 112.983 1244.39 116.383 1255.29 120.083 C 1283.69 129.583 1325.59 154.583 1359.09 181.983 C 1372.19 192.683 1393.79 213.683 1404.09 225.583 C 1433.99 260.283 1458.89 304.583 1469.59 342.083 C 1473.49 355.783 1474.49 361.683 1473.09 362.583 C 1472.49 362.883 1469.49 361.583 1466.29 359.683 C 1463.09 357.683 1458.99 355.583 1457.09 355.083 C 1447.09 352.183 1441.59 359.783 1445.89 370.583 C 1446.99 373.383 1449.89 380.483 1452.29 386.583 C 1470.09 430.583 1475.79 480.683 1466.99 515.383 C 1464.69 524.483 1461.29 534.083 1460.29 534.083 C 1459.89 534.083 1458.39 532.083 1456.89 529.583 C 1452.69 522.683 1446.59 521.183 1441.29 525.583 C 1438.99 527.483 1437.39 530.583 1434.99 537.883 C 1433.29 543.183 1429.39 552.483 1426.39 558.583 C 1410.89 589.683 1387.39 616.683 1356.49 638.783 C 1339.59 650.883 1316.09 662.083 1307.59 662.083 C 1304.99 662.083 1304.89 661.883 1305.49 658.483 C 1306.49 653.183 1304.59 648.583 1300.59 646.683 C 1295.99 644.483 1293.59 645.183 1282.79 652.383 C 1255.39 670.483 1223.79 680.683 1184.89 684.183 C 1142.89 687.883 1092.99 675.383 1059.79 652.783 C 1051.89 647.383 1049.19 646.083 1046.09 646.083 C 1041.19 646.083 1038.49 649.183 1037.59 656.083 C 1037.19 658.883 1036.49 661.383 1035.99 661.683 C 1034.29 662.683 1020.89 658.083 1010.59 652.883 C 979.389 637.283 948.689 609.683 928.289 579.083 C 920.489 567.283 911.989 550.183 908.089 538.483 C 904.489 527.683 901.089 523.083 896.589 523.083 C 892.589 523.083 888.689 525.583 886.589 529.483 C 885.489 531.483 884.289 533.083 883.889 533.083 C 880.889 533.083 875.689 517.183 873.589 501.483 C 868.689 463.983 876.189 419.883 894.989 375.883 C 900.689 362.483 900.289 357.483 893.289 354.983 C 889.389 353.683 884.889 354.983 876.789 359.783 C 873.589 361.683 870.689 362.983 870.289 362.683 C 869.389 361.683 871.689 351.183 875.789 338.083 C 889.489 293.383 918.489 247.683 958.589 207.583 C 993.689 172.383 1026.09 153.583 1055.89 151.083 C 1064.89 150.383 1068.39 148.283 1069.39 143.283 C 1070.19 139.083 1068.69 136.783 1062.19 132.083 C 1054.59 126.583 1055.19 125.883 1068.69 124.083 C 1085.39 121.883 1103.89 123.783 1121.39 129.483 C 1131.69 132.883 1136.99 132.883 1140.49 129.483 C 1145.29 124.683 1143.79 120.283 1133.29 108.283 C 1124.09 97.783 1121.09 93.683 1121.09 91.583 C 1121.09 89.983 1121.79 89.883 1129.39 90.383 C 1133.89 90.683 1141.69 92.183 1146.59 93.583 Z" id="path-5" fill="#08414d" stroke="none" style="stroke-width: 0.1;"/><path d="M 1069.09 232.583 C 1041.39 237.883 1017.69 249.883 998.889 268.283 C 974.389 292.183 959.989 321.983 954.489 360.083 C 952.189 376.083 952.989 407.983 956.089 423.583 C 966.289 475.783 989.489 513.683 1029.29 543.383 C 1063.69 568.883 1109.89 583.183 1164.09 584.783 C 1215.19 586.283 1263.79 574.783 1300.59 552.583 C 1318.59 541.683 1338.19 524.583 1350.89 508.683 C 1386.59 463.983 1400.59 398.383 1386.49 341.883 C 1375.29 297.083 1348.19 263.283 1307.89 244.083 C 1289.39 235.283 1270.69 231.083 1250.09 231.083 C 1230.49 231.083 1217.29 233.883 1190.09 243.683 C 1180.49 247.183 1178.69 247.483 1169.59 247.483 C 1160.89 247.483 1158.49 247.083 1150.59 244.183 C 1134.49 238.383 1124.69 235.283 1117.09 233.583 C 1106.49 231.283 1078.89 230.683 1069.09 232.583 Z M 1112.69 255.083 C 1117.19 256.083 1126.89 259.183 1134.19 261.983 C 1153.49 269.083 1159.09 270.383 1170.09 270.383 C 1180.89 270.383 1187.49 268.883 1202.39 262.983 C 1225.09 253.883 1242.99 250.883 1261.69 252.983 C 1311.89 258.683 1351.89 294.883 1365.09 346.583 C 1376.49 391.283 1367.19 445.583 1341.59 484.583 C 1321.99 514.183 1289.09 538.983 1253.19 550.983 C 1195.99 570.083 1125.39 567.083 1072.69 543.183 C 1039.89 528.283 1009.49 499.583 993.989 468.883 C 986.189 453.383 979.489 432.783 976.489 414.583 C 974.089 400.483 974.089 370.983 976.489 357.583 C 981.689 328.783 992.989 306.083 1011.89 286.783 C 1029.99 268.383 1049.39 257.983 1074.09 253.483 C 1083.79 251.783 1101.99 252.483 1112.69 255.083 Z" id="path-6" fill="#08414d" stroke="none" style="stroke-width: 0.1;"/><path d="M 1084.39 442.583 C 1080.79 444.083 1078.09 448.583 1078.09 452.883 C 1078.09 456.583 1082.89 462.683 1091.29 469.783 C 1133.09 505.483 1201.69 507.583 1245.39 474.683 C 1249.39 471.683 1255.19 466.583 1258.39 463.283 C 1263.59 457.783 1264.09 456.883 1264.09 452.783 C 1264.09 444.483 1256.49 439.083 1249.19 442.083 C 1247.59 442.683 1243.69 445.483 1240.49 448.283 C 1213.09 471.683 1181.09 479.783 1146.89 472.083 C 1130.69 468.483 1115.19 460.483 1102.59 448.983 C 1093.59 440.883 1090.69 439.783 1084.39 442.583 Z" id="path6" style="display: inline; stroke-width: 0.1;" fill="#08414d" stroke="none"/><path d="M 1069.17 352.379 C 1059.6 353.886 1054.12 358.62 1052.08 362.556 C 1049.88 366.686 1049.67 379.142 1053.15 376.355 C 1058.52 372.063 1083.6 362.131 1105.4 376.355 C 1108.1 378.113 1107.84 372.999 1108.05 369.115 C 1108.47 361.267 1102.92 355.946 1092.07 352.678 C 1083.71 350.164 1077.8 351.067 1069.17 352.379 Z" id="path-20" style="display: inline; stroke-width: 0.1;" fill="#08414d" stroke="none"/><path d="M 1254.86 352.379 C 1245.29 353.886 1239.81 358.62 1237.77 362.556 C 1235.57 366.686 1235.36 379.142 1238.84 376.355 C 1244.21 372.063 1269.29 362.131 1291.09 376.355 C 1293.79 378.113 1293.53 372.999 1293.74 369.115 C 1294.16 361.267 1288.61 355.946 1277.76 352.678 C 1269.4 350.164 1263.49 351.067 1254.86 352.379 Z" id="path-21" style="display: inline; stroke-width: 0.1;" fill="#08414d" stroke="none"/></g></svg>