<?xml version="1.0" encoding="UTF-8" standalone="no"?>
<svg
   version="1.0"
   width="1024pt"
   height="1024pt"
   viewBox="256 156 512 712"
   preserveAspectRatio="xMidYMid"
   id="svg6"
   xmlns="http://www.w3.org/2000/svg"
   xmlns:svg="http://www.w3.org/2000/svg">
  <defs
     id="defs6" />
  <g
     id="g25">
    <path
       id="path21"
       style="display:inline;fill:#ebfcff;fill-opacity:1;stroke:none;stroke-width:9.99998;stroke-dasharray:none;stroke-opacity:1"
       d="m 463.80469,235.12891 c -3.09465,-0.002 -6.51706,0.87739 -8.40821,3.51757 -2.28667,2.99173 -1.88226,7.29778 0.0469,10.36133 3.70462,6.02871 8.57775,11.20266 12.967,16.71946 1.14391,1.39129 2.31302,2.85751 3.31958,4.22572 1.40188,1.91539 2.77105,3.88369 3.77983,6.03724 -0.77979,0.92738 -2.04837,0.6044 -3.08689,0.51527 -3.87629,-0.49332 -7.60644,-1.66166 -11.3345,-2.65645 -5.0072,-1.42668 -10.05124,-2.74142 -15.18382,-3.63634 -13.53397,-2.53377 -27.51032,-3.11975 -41.13102,-0.90448 -3.57467,0.5287 -7.27503,1.0957 -10.45228,2.91936 -3.01872,1.88747 -4.78483,5.85708 -3.5403,9.29973 1.03318,3.07599 3.65998,5.18852 5.98712,7.28688 1.83164,1.58722 3.88646,3.0389 5.29833,5.01783 -0.0592,0.83591 -1.0151,0.74867 -1.60044,1.0044 -3.70441,0.93168 -7.54698,1.07335 -11.29635,1.76648 -16.5861,2.68551 -32.3528,9.27589 -46.63717,18.00956 -15.69992,9.55611 -29.84143,21.45056 -43.10138,34.12348 -15.6639,15.07336 -30.24399,31.30059 -43.26899,48.71422 -18.12875,24.26224 -33.23207,50.92497 -43.48224,79.47095 -3.45402,9.56917 -6.50642,19.30157 -8.7409,29.232 -0.60123,2.92736 -1.15141,5.97675 -0.61276,8.95433 0.70129,3.33117 3.63287,6.16751 7.09592,6.35386 2.94989,0.20297 5.54087,-1.44991 8.11235,-2.64126 3.74192,-1.8147 7.37041,-4.02296 11.43784,-5.03364 0.49038,-0.007 1.27172,-0.13189 1.5238,0.39328 0.0541,1.54104 -0.61732,2.99523 -1.0039,4.46289 -1.42153,4.34029 -3.12826,8.40017 -4.80063,12.6547 -6.58885,16.78571 -12.15099,34.01756 -15.74616,51.70557 -1.69325,8.26238 -3.1681,16.58892 -3.91779,24.9953 -0.83214,10.61921 -0.83566,21.28546 -0.60538,31.92883 0.18546,7.05868 0.63873,14.13889 2.05578,21.07005 1.33961,6.82708 3.11533,13.58135 5.49732,20.12104 1.07434,2.75086 2.24188,5.56385 4.21217,7.80576 2.177,2.36378 5.73931,3.61818 8.83203,2.43164 3.04256,-1.06301 5.00077,-3.7921 6.764,-6.32934 0.89586,-1.13895 1.94165,-2.46984 3.47624,-2.65699 1.77039,2.35643 2.81203,5.16489 3.94173,7.86562 2.65478,6.70651 5.11036,13.50236 8.24942,20.00488 8.78331,18.83602 20.76433,36.09701 34.80665,51.38654 15.20556,16.66393 32.6781,31.31175 52.00069,42.98072 9.56636,5.61147 19.64691,10.35386 30.07626,14.12634 3.26301,1.12453 6.65896,2.1496 10.14204,2.10074 3.14724,-0.14826 6.07399,-2.15985 7.38241,-5.02017 1.58698,-3.16827 1.38887,-6.87129 2.74805,-10.10988 0.14504,-0.74668 0.91148,-0.25977 1.35454,-0.10409 5.159,2.43087 9.71286,5.92568 14.63202,8.78088 20.10215,12.04029 42.40753,20.17889 65.30284,24.98573 8.61261,1.7843 17.32293,3.16558 26.09599,3.83852 9.62381,0.58881 19.27412,0.28842 28.90271,-0.0106 6.99084,-0.2395 13.97521,-0.82561 20.87246,-2.01469 19.62695,-3.14219 39.1192,-8.02075 57.24541,-16.31381 10.42116,-4.72512 20.34526,-10.47038 29.96905,-16.64142 2.17556,-1.28685 4.34715,-2.77062 6.83632,-3.33384 1.29802,0.68517 1.66599,2.26136 1.522,3.61961 -0.22276,2.72683 -0.83589,5.3613 -0.99661,8.1011 0.1464,2.72901 2.96857,4.78266 5.61172,4.34388 4.1751,0.006 8.45518,0.15735 12.47179,-1.18211 7.69564,-2.1078 14.89711,-5.64111 21.9827,-9.24321 25.81126,-13.46756 48.50779,-32.50978 67.33841,-54.63533 12.77027,-15.01713 23.48227,-31.8163 31.36816,-49.89571 2.60461,-5.84402 4.81171,-11.8521 7.22136,-17.77619 0.78731,-1.81282 1.57176,-3.80398 2.90152,-5.34309 0.86898,-0.89701 2.27365,-0.3091 2.88431,0.59098 2.25395,2.49911 3.76453,5.7187 6.62026,7.63324 3.08092,2.00952 7.55973,1.55148 10.05285,-1.20147 2.53864,-2.58322 3.54267,-6.17355 4.71985,-9.49695 2.5361,-7.84829 4.36183,-15.91411 5.81552,-24.02779 0.97687,-5.6318 1.40708,-11.34409 1.45293,-17.05704 0.22455,-10.07015 0.18305,-20.167 -0.71482,-30.20531 -1.13543,-11.13272 -3.0468,-22.18436 -5.59826,-33.07816 -3.74076,-15.80739 -9.04868,-31.19739 -15.02465,-46.2874 -1.73045,-4.54828 -3.69591,-9.05502 -4.68747,-13.83899 -0.0755,-0.66175 -0.22516,-1.41623 0.14827,-2.01615 2.37369,-0.45136 4.61749,0.79737 6.69504,1.77092 4.0287,2.00352 7.87328,4.57924 12.31401,5.58629 3.88474,0.69374 8.24406,-1.62444 9.38705,-5.49647 1.15435,-3.34904 0.15565,-6.89296 -0.4631,-10.24084 -1.95653,-9.20216 -4.91833,-18.15084 -7.9312,-27.04988 -3.83142,-11.04511 -8.51706,-21.7798 -13.81199,-32.19809 -11.09846,-22.10098 -24.43091,-43.07936 -39.70177,-62.53171 -6.22972,-7.9327 -12.98242,-15.44045 -20.02361,-22.65871 -10.31227,-10.69963 -20.94735,-21.12049 -32.39369,-30.61326 -17.12973,-14.2866 -35.4378,-27.13466 -54.47673,-38.74238 -12.91125,-7.80212 -26.20053,-15.03173 -40.04139,-21.05293 -8.38337,-3.64876 -17.04977,-6.66027 -25.93571,-8.82819 -5.32016,-1.3261 -10.68433,-2.58243 -16.14465,-3.15796 -2.70422,-0.28415 -5.64519,0.28135 -7.64608,2.2386 -2.10766,2.00909 -2.80676,5.22124 -1.93943,7.97291 0.76746,3.35431 1.73428,6.69322 2.5781,10.00756 -0.34498,0.42957 -0.70164,1.13344 -1.27226,1.18093 -3.07235,-1.41023 -5.69309,-3.60494 -8.38137,-5.61861 -5.02624,-3.96152 -10.02215,-7.96906 -15.30148,-11.59363 -13.32808,-9.29464 -27.73146,-17.20873 -43.14424,-22.45721 -9.7989,-3.3072 -20.09113,-5.43448 -30.46901,-5.28296 z m 125.97265,155.09375 c 4.00308,0.006 7.9045,0.18439 11.86906,0.55073 2.86082,0.26635 5.73918,0.63001 8.65243,1.10161 3.94917,0.63944 8.06277,1.51099 11.91874,2.52928 21.52531,5.6289 41.41894,16.95559 57.71944,32.0407 7.6885,7.0375 14.19522,15.26689 20.01372,23.88719 8.35896,12.73683 14.41817,26.90892 18.4145,41.58971 3.09391,11.41039 4.99928,23.31136 5.73231,35.17503 0.5045,7.97823 0.48536,16.03959 -0.006,24.01637 -0.27016,4.24334 -0.66419,8.3972 -1.19336,12.63281 -3.84362,30.15081 -14.58782,59.75302 -32.13659,84.73617 -3.62913,5.20285 -7.671,10.16632 -11.93702,14.78161 -8.78308,9.47213 -18.41015,18.16584 -28.71816,25.95062 -7.3501,5.55751 -15.19873,10.44302 -23.37815,14.68199 -18.13112,9.37629 -37.84553,15.84253 -57.8646,19.99201 -10.99082,2.27018 -22.18637,3.85188 -33.32486,4.78339 -4.17535,0.35246 -8.29595,0.42642 -12.5188,0.50783 -9.05064,0.16746 -18.10947,0.26734 -27.15698,-0.0742 -4.76945,-0.2887 -9.62125,-0.78714 -14.43647,-1.21875 -12.37622,-1.17294 -24.69472,-3.22427 -36.72948,-6.20203 -10.73573,-2.65337 -21.44556,-6.13191 -31.75983,-10.39758 -2.4023,-1.00472 -4.94996,-2.11362 -7.37695,-3.23047 -18.20385,-8.40557 -35.43293,-19.58221 -49.87002,-33.65111 -8.56379,-8.34129 -16.37232,-17.34933 -23.25907,-27.11672 -3.16257,-4.42554 -5.85407,-9.1598 -8.38064,-13.97018 -4.0621,-7.67076 -7.79964,-15.52309 -11.02383,-23.58386 -2.53352,-6.64139 -4.45737,-13.49665 -6.29216,-20.35803 -1.12708,-4.27073 -2.15226,-8.64091 -3.11569,-13.00369 -0.21563,-1.05825 -0.4778,-2.36649 -0.67734,-3.52974 -0.72999,-4.07949 -1.23339,-8.38486 -1.54273,-12.54552 -0.89348,-11.60726 -1.09066,-23.26618 -0.67251,-34.89935 0.22233,-5.94296 0.64337,-12.06256 1.7157,-17.98585 3.26807,-17.79897 8.62074,-35.32482 17.6068,-51.09699 4.80419,-8.52316 10.46889,-16.59821 17.25267,-23.66888 5.01623,-5.36743 10.23433,-10.56393 15.81685,-15.3436 1.19714,-1.00345 2.48116,-2.02488 3.64164,-2.89757 5.5563,-4.17103 11.60386,-7.73194 17.7833,-10.80156 5.18916,-2.58884 10.61557,-4.80074 16.03851,-6.69579 3.72376,-1.29298 7.68227,-2.49925 11.57672,-3.48221 2.66522,-0.69238 5.45185,-1.30458 8.04802,-1.64515 8.32578,-1.08378 16.74671,-1.16985 25.12917,-0.96639 1.97083,0.0569 4.13999,0.18372 6.18556,0.30341 5.63274,0.40329 11.29199,0.90893 16.79794,2.2159 6.37559,1.66926 12.54431,3.77116 18.8129,5.79951 7.3642,2.4245 14.7057,4.91742 22.05516,7.38626 7.65625,-0.17447 15.31253,-0.34786 22.96875,-0.52344 11.89074,-4.0084 23.69288,-8.33289 35.79064,-11.69841 10.37863,-2.70687 21.10922,-4.02461 31.83045,-4.07502 z" />
    <path
       id="path29"
       style="display:inline;fill:#9bddeb;fill-opacity:1;stroke:none;stroke-width:9.99998;stroke-dasharray:none;stroke-opacity:1"
       d="m 587.83789,400.31836 c -11.44087,0.27996 -22.84595,2.28413 -33.65137,6.07161 -10.37471,3.45106 -20.62479,7.26472 -30.94238,10.87761 -1.64308,0.17128 -3.32633,0.03 -4.98515,0.0788 -7.13125,0.007 -14.2625,0.0139 -21.39376,0.0208 -14.97205,-5.00609 -29.84276,-10.33898 -45.02148,-14.69727 -3.05226,-0.86954 -6.21021,-1.26528 -9.37472,-1.39979 -8.56183,-0.50793 -17.14831,-0.4479 -25.71837,-0.21612 -4.42213,0.1832 -8.77433,1.09745 -13.0155,2.32485 -14.13435,3.85955 -27.69456,10.08997 -39.46265,18.86209 -5.82871,4.4223 -11.09708,9.53061 -16.20781,14.75141 -5.16517,5.37925 -10.16285,10.9752 -14.25067,17.23355 -9.23678,14.07345 -15.88529,29.82171 -19.72899,46.2036 -1.91799,8.12098 -3.03045,16.42548 -3.32463,24.76449 -0.33911,10.77631 -0.39021,21.58322 0.47135,32.33719 1.36998,14.82562 4.99013,29.37984 9.93816,43.3985 4.40557,12.29572 9.85755,24.2803 17.02418,35.22794 11.53076,17.73936 26.59618,33.0749 43.65942,45.53182 14.0973,10.25396 29.72207,18.43342 46.2634,23.96028 14.6698,5.00107 29.80603,8.60407 45.1135,10.99946 7.68668,1.19924 15.43844,2.02092 23.21934,2.21508 10.0587,0.34296 20.12844,0.29793 30.19002,0.10407 6.79516,-0.14138 13.57932,-0.66853 20.31388,-1.58189 16.9246,-2.17876 33.6877,-5.86596 49.82618,-11.4403 18.89384,-6.62922 36.56918,-16.58971 52.30257,-28.94657 12.43671,-9.83259 23.71499,-21.21405 32.97902,-34.10128 5.44709,-7.55569 10.06874,-15.68595 13.94558,-24.15098 7.44375,-16.08016 12.52373,-33.21203 15.5489,-50.65672 0.88941,-5.10855 1.41257,-10.27341 1.61985,-15.45363 0.45221,-9.64581 0.51636,-19.31613 0.0815,-28.96346 -0.22274,-5.00219 -0.82493,-9.98184 -1.77715,-14.89646 -2.86386,-15.64234 -8.11754,-30.88313 -15.8982,-44.77036 -3.59709,-6.53942 -7.71064,-12.81438 -12.57548,-18.48605 -6.05464,-7.18946 -12.77757,-13.81626 -20.00251,-19.82563 -6.3368,-5.19017 -13.42541,-9.38905 -20.73528,-13.04842 -16.07519,-7.96305 -33.95324,-12.42797 -51.92336,-12.35585 -0.83585,-0.006 -1.67164,0.0198 -2.50743,0.0276 z" />
    <path
       id="path26"
       style="display:inline;fill:#9bddeb;fill-opacity:1;stroke:none;stroke-width:20;stroke-dasharray:none;stroke-opacity:1"
       d="m 262.66016,193.49609 c -3.3075,0.21601 -5.94463,2.49943 -8.19495,4.72185 -21.08843,20.04643 -36.18503,46.5203 -41.86369,75.11582 -2.4976,12.56789 -3.00289,25.53335 -1.39373,38.24913 1.6409,13.85476 5.67096,27.43399 12.00395,39.8721 4.57436,9.12838 10.28957,17.62047 16.23637,25.89996 3.21008,4.55871 6.41939,9.11797 9.63001,13.6763 6.5896,-8.3086 13.17164,-16.63344 20.26745,-24.52047 6.68137,-7.56899 13.37277,-15.14663 20.54736,-22.25503 3.70355,-3.33624 7.69479,-6.63203 11.40997,-10.03591 4.69558,-4.18559 9.36862,-8.39375 14.05062,-12.59484 -7.20679,-8.04386 -14.975,-15.59699 -21.67928,-24.08226 -3.68742,-4.71277 -7.00471,-9.71116 -9.9594,-14.91383 -0.43496,-0.81109 -1.03398,-1.8528 -1.50897,-2.76538 -2.41072,-4.53232 -4.52156,-9.22231 -6.34259,-14.02173 -0.30241,-0.83447 -0.71471,-1.92564 -1.03852,-2.86908 -1.95141,-5.60855 -3.52729,-11.27184 -4.68218,-17.1485 -0.63332,-3.34855 -0.80243,-6.77302 -1.01758,-10.13477 -0.0276,-0.72068 -0.0736,-1.83121 -0.0949,-2.60618 -0.23568,-7.92451 -0.10333,-15.88912 0.71086,-23.73625 0.20417,-2.50325 0.88758,-4.93523 1.22385,-7.41548 0.29513,-4.03824 -2.90403,-8.10254 -7.0117,-8.41396 -0.4297,-0.0375 -0.86256,-0.0354 -1.29296,-0.0215 z" />
    <path
       id="path27"
       style="display:inline;fill:#9bddeb;fill-opacity:1;stroke:none;stroke-width:14.1421;stroke-dasharray:none;stroke-opacity:1"
       d="m 760.07617,193.86914 c -3.00333,-0.11807 -5.66273,2.34919 -6.16015,5.24219 -0.38045,1.81577 0.42029,3.56926 0.62653,5.35408 0.92599,5.22542 1.45317,10.57163 1.70409,15.78098 0.33379,7.04129 0.24948,14.23788 -0.565,21.29658 -0.0991,0.73009 -0.22136,1.76786 -0.35684,2.61309 -1.04523,7.19521 -3.10637,14.21459 -5.86687,20.93311 -2.77525,6.83797 -6.00652,13.49856 -9.72034,19.87646 -4.36686,7.33365 -9.75759,14.01207 -15.68067,20.14199 -4.92773,5.17102 -9.95386,10.24723 -14.90653,15.39433 4.85849,4.0552 9.75166,8.07266 14.44141,12.32422 1.57501,1.43631 3.2593,3.03351 4.84668,4.56451 8.69574,8.32306 17.06876,17.08718 25.04394,26.03901 4.0567,4.55122 7.91697,9.27053 11.7434,14.01511 1.78149,2.10444 3.66128,4.29173 6.1827,5.51659 2.77258,1.25217 6.34909,0.61709 8.31325,-1.77473 2.20442,-2.32041 3.89725,-5.05633 5.73397,-7.66225 4.45068,-6.61021 8.71736,-13.35552 12.56525,-20.3361 9.30943,-17.49481 13.96846,-37.34513 14.02126,-57.13089 0.0126,-13.6725 -2.15047,-27.38555 -6.70775,-40.28934 -3.40142,-9.23248 -7.91917,-18.01225 -12.84231,-26.51613 -4.19831,-7.10811 -9.07902,-13.79905 -14.46834,-20.04895 -3.86036,-4.54116 -7.83217,-9.02926 -12.35197,-12.92956 -1.5967,-1.2861 -3.47624,-2.4273 -5.59571,-2.4043 z" />
  </g>
  <g
     transform="matrix(0.1,0,0,-0.1,0,1024)"
     fill="#08414d"
     stroke="none"
     id="g6">
    <path
       d="m 2677,8554 c -90,-32 -253,-175 -385,-337 -168,-205 -286,-461 -327,-707 -23,-135 -16,-401 14,-531 53,-231 147,-422 324,-658 l 55,-73 -29,-43 c -292,-433 -511,-1046 -433,-1211 22,-46 87,-100 130,-108 40,-8 41,-14 14,-92 -34,-96 -78,-279 -106,-434 -35,-197 -45,-530 -20,-698 39,-266 119,-443 223,-493 31,-15 58,-20 102,-18 l 61,2 55,-107 c 109,-211 215,-365 358,-521 206,-226 431,-397 697,-531 166,-83 276,-117 387,-118 88,-1 93,0 139,33 l 48,34 106,-53 c 190,-95 413,-163 670,-207 133,-22 520,-25 655,-5 265,40 513,112 713,208 l 115,54 31,-23 c 99,-75 269,-56 513,58 441,206 888,651 1095,1093 l 39,82 h 65 c 35,0 79,6 97,14 83,34 157,158 201,334 41,167 49,256 43,492 -8,280 -42,496 -117,735 -47,151 -47,141 -8,154 61,21 107,61 134,118 24,49 26,61 21,131 -19,254 -206,710 -430,1045 l -58,88 48,53 c 152,166 296,452 349,691 21,100 29,333 15,436 -46,322 -202,639 -434,885 -83,89 -193,176 -266,214 -59,30 -147,38 -188,16 -81,-41 -91,-105 -44,-264 43,-145 55,-236 48,-370 -9,-184 -65,-345 -177,-507 -52,-74 -203,-235 -222,-235 -5,0 -61,39 -124,86 -329,247 -758,461 -1039,518 -175,36 -256,29 -304,-25 -14,-16 -29,-29 -34,-29 -5,0 -55,29 -110,64 -139,87 -224,128 -361,175 -151,52 -245,71 -354,71 -97,0 -152,-14 -214,-55 -69,-46 -97,-145 -64,-226 7,-19 12,-38 10,-44 -3,-6 -59,-9 -151,-7 -370,8 -563,-85 -540,-260 6,-44 7,-43 -107,-93 -80,-35 -258,-132 -328,-179 l -28,-18 -81,78 c -147,143 -243,295 -295,470 -21,72 -27,116 -31,230 -6,159 2,224 47,370 45,145 37,199 -33,243 -41,25 -121,27 -180,5 z m -33,-325 c -34,-130 -37,-355 -8,-487 36,-162 128,-370 216,-487 29,-38 88,-106 131,-149 42,-44 76,-80 75,-81 -25,-13 -216,-186 -283,-256 -84,-87 -217,-242 -259,-300 l -17,-24 -29,35 c -97,115 -206,309 -248,440 -71,220 -69,494 5,720 63,192 176,378 329,539 53,55 97,101 99,101 1,0 -4,-23 -11,-51 z m 5120,-144 c 327,-404 393,-880 185,-1322 -38,-79 -132,-227 -184,-288 l -26,-30 -27,35 c -141,181 -309,360 -472,502 l -64,57 85,88 c 109,112 169,194 229,313 98,196 134,338 133,530 -1,111 -17,235 -39,295 -11,30 98,-78 180,-180 z M 4865,7785 c 198,-57 408,-172 585,-321 56,-47 117,-90 136,-95 43,-13 86,9 104,51 11,26 10,39 -8,93 -11,34 -18,64 -16,66 12,12 177,-22 286,-59 284,-95 703,-345 1038,-619 131,-107 347,-317 450,-436 299,-347 548,-790 655,-1165 39,-137 49,-196 35,-205 -6,-3 -36,10 -68,29 -32,20 -73,41 -92,46 -100,29 -155,-47 -112,-155 11,-28 40,-99 64,-160 178,-440 235,-941 147,-1288 -23,-91 -57,-187 -67,-187 -4,0 -19,20 -34,45 -42,69 -103,84 -156,40 -23,-19 -39,-50 -63,-123 -17,-53 -56,-146 -86,-207 -155,-311 -390,-581 -699,-802 -169,-121 -404,-233 -489,-233 -26,0 -27,2 -21,36 10,53 -9,99 -49,118 -46,22 -70,15 -178,-57 -274,-181 -590,-283 -979,-318 -420,-37 -919,88 -1251,314 -79,54 -106,67 -137,67 -49,0 -76,-31 -85,-100 -4,-28 -11,-53 -16,-56 -17,-10 -151,36 -254,88 -312,156 -619,432 -823,738 -78,118 -163,289 -202,406 -36,108 -70,154 -115,154 -40,0 -79,-25 -100,-64 -11,-20 -23,-36 -27,-36 -30,0 -82,159 -103,316 -49,375 26,816 214,1256 57,134 53,184 -17,209 -39,13 -84,0 -165,-48 -32,-19 -61,-32 -65,-29 -9,10 14,115 55,246 137,447 427,904 828,1305 351,352 675,540 973,565 90,7 125,28 135,78 8,42 -7,65 -72,112 -76,55 -70,62 65,80 167,22 352,3 527,-54 103,-34 156,-34 191,0 48,48 33,92 -72,212 -92,105 -122,146 -122,167 0,16 7,17 83,12 45,-3 123,-18 172,-32 z"
       id="path1" />
    <path
       d="m 4090,6395 c -277,-53 -514,-173 -702,-357 -245,-239 -389,-537 -444,-918 -23,-160 -15,-479 16,-635 102,-522 334,-901 732,-1198 344,-255 806,-398 1348,-414 511,-15 997,100 1365,322 180,109 376,280 503,439 357,447 497,1103 356,1668 -112,448 -383,786 -786,978 -185,88 -372,130 -578,130 -196,0 -328,-28 -600,-126 -96,-35 -114,-38 -205,-38 -87,0 -111,4 -190,33 -161,58 -259,89 -335,106 -106,23 -382,29 -480,10 z m 436,-225 c 45,-10 142,-41 215,-69 193,-71 249,-84 359,-84 108,0 174,15 323,74 227,91 406,121 593,100 502,-57 902,-419 1034,-936 114,-447 21,-990 -235,-1380 -196,-296 -525,-544 -884,-664 -572,-191 -1278,-161 -1805,78 -328,149 -632,436 -787,743 -78,155 -145,361 -175,543 -24,141 -24,436 0,570 52,288 165,515 354,708 181,184 375,288 622,333 97,17 279,10 386,-16 z"
       id="path2" />
    <path
       d="m 4110,5348 c -61,-31 -98,-87 -111,-168 -12,-77 -3,-230 18,-280 62,-152 257,-155 336,-6 19,36 21,57 22,176 0,124 -2,139 -25,184 -52,103 -149,141 -240,94 z"
       id="path3"
       style="display:inline" />
    <path
       d="m 5970,5348 c -61,-31 -98,-87 -111,-168 -14,-85 -4,-230 19,-284 66,-147 261,-147 333,0 17,37 23,70 27,149 7,169 -27,263 -112,305 -55,26 -101,25 -156,-2 z"
       id="path4"
       style="display:inline" />
    <path
       d="m 4243,4295 c -36,-15 -63,-60 -63,-103 0,-37 48,-98 132,-169 418,-357 1104,-378 1541,-49 40,30 98,81 130,114 52,55 57,64 57,105 0,83 -76,137 -149,107 -16,-6 -55,-34 -87,-62 -274,-234 -594,-315 -936,-238 -162,36 -317,116 -443,231 -90,81 -119,92 -182,64 z"
       id="path6"
       style="display:inline" />
  </g>
</svg>
